<svg width="1691" height="1396" viewBox="0 0 1691 1396" fill="none" xmlns="http://www.w3.org/2000/svg">
<g clip-path="url(#clip0_671_9555)">
<rect width="1690.47" height="1396" fill="#0058FF"/>
<rect width="373.603" height="373.603" transform="matrix(0 -1 1 0 -19.0156 335.854)" fill="#387DFF"/>
<path d="M66.5966 250.238L113.297 203.538M66.5966 47.8702L113.297 94.5705M43.2465 164.621C47.375 164.621 51.3345 162.981 54.2538 160.062C57.1732 157.142 58.8132 153.183 58.8132 149.054C58.8132 144.926 57.1732 140.966 54.2538 138.047C51.3345 135.128 47.375 133.487 43.2465 133.487C39.1179 133.487 35.1584 135.128 32.2391 138.047C29.3198 140.966 27.6797 144.926 27.6797 149.054C27.6797 153.183 29.3198 157.142 32.2391 160.062C35.1584 162.981 39.1179 164.621 43.2465 164.621Z" stroke="#0058FF" stroke-width="31.1335" stroke-linecap="round" stroke-linejoin="round"/>
<rect width="373.603" height="373.603" transform="matrix(0 -1 1 0 -19.0156 1129.28)" fill="#387DFF"/>
<path d="M66.5966 1043.67L113.297 996.967M66.5966 841.299L113.297 887.999M43.2465 958.05C47.375 958.05 51.3345 956.41 54.2538 953.49C57.1732 950.571 58.8132 946.612 58.8132 942.483C58.8132 938.354 57.1732 934.395 54.2538 931.476C51.3345 928.556 47.375 926.916 43.2465 926.916C39.1179 926.916 35.1584 928.556 32.2391 931.476C29.3198 934.395 27.6797 938.354 27.6797 942.483C27.6797 946.612 29.3198 950.571 32.2391 953.49C35.1584 956.41 39.1179 958.05 43.2465 958.05Z" stroke="#0058FF" stroke-width="31.1335" stroke-linecap="round" stroke-linejoin="round"/>
<rect width="373.603" height="373.603" transform="matrix(0 -1 1 0 -19.0859 597.373)" fill="#387DFF"/>
<path d="M66.5302 511.754L113.231 465.054M66.5302 309.386L113.231 356.086M43.1801 426.137C47.3086 426.137 51.2681 424.497 54.1874 421.577C57.1068 418.658 58.7468 414.698 58.7468 410.57C58.7468 406.441 57.1068 402.482 54.1874 399.562C51.2681 396.643 47.3086 395.003 43.1801 395.003C39.0515 395.003 35.092 396.643 32.1727 399.562C29.2533 402.482 27.6133 406.441 27.6133 410.57C27.6133 414.698 29.2533 418.658 32.1727 421.577C35.092 424.497 39.0515 426.137 43.1801 426.137Z" stroke="#0058FF" stroke-width="31.1335" stroke-linecap="round" stroke-linejoin="round"/>
<rect width="373.603" height="373.603" transform="matrix(0 -1 1 0 -19.0859 1390.8)" fill="#387DFF"/>
<path d="M66.5302 1305.18L113.231 1258.48M66.5302 1102.82L113.231 1149.52M43.1801 1219.57C47.3086 1219.57 51.2681 1217.93 54.1874 1215.01C57.1068 1212.09 58.7468 1208.13 58.7468 1204C58.7468 1199.87 57.1068 1195.91 54.1874 1192.99C51.2681 1190.07 47.3086 1188.43 43.1801 1188.43C39.0515 1188.43 35.092 1190.07 32.1727 1192.99C29.2533 1195.91 27.6133 1199.87 27.6133 1204C27.6133 1208.13 29.2533 1212.09 32.1727 1215.01C35.092 1217.93 39.0515 1219.57 43.1801 1219.57Z" stroke="#0058FF" stroke-width="31.1335" stroke-linecap="round" stroke-linejoin="round"/>
<rect width="373.603" height="373.603" transform="matrix(0 -1 1 0 -19.0859 862.968)" fill="#387DFF"/>
<path d="M66.5302 777.352L113.231 730.651M66.5302 574.983L113.231 621.684M43.1801 691.734C47.3086 691.734 51.2681 690.094 54.1874 687.175C57.1068 684.256 58.7468 680.296 58.7468 676.168C58.7468 672.039 57.1068 668.079 54.1874 665.16C51.2681 662.241 47.3086 660.601 43.1801 660.601C39.0515 660.601 35.092 662.241 32.1727 665.16C29.2533 668.079 27.6133 672.039 27.6133 676.168C27.6133 680.296 29.2533 684.256 32.1727 687.175C35.092 690.094 39.0515 691.734 43.1801 691.734Z" stroke="#0058FF" stroke-width="31.1335" stroke-linecap="round" stroke-linejoin="round"/>
<rect width="373.603" height="373.603" transform="matrix(0 -1 1 0 0 1656.4)" fill="#387DFF"/>
<path d="M85.6123 1570.78L132.313 1524.08M85.6123 1368.41L132.313 1415.11M62.2621 1485.16C66.3907 1485.16 70.3501 1483.52 73.2695 1480.6C76.1888 1477.69 77.8289 1473.73 77.8289 1469.6C77.8289 1465.47 76.1888 1461.51 73.2695 1458.59C70.3501 1455.67 66.3907 1454.03 62.2621 1454.03C58.1335 1454.03 54.1741 1455.67 51.2547 1458.59C48.3354 1461.51 46.6953 1465.47 46.6953 1469.6C46.6953 1473.73 48.3354 1477.69 51.2547 1480.6C54.1741 1483.52 58.1335 1485.16 62.2621 1485.16Z" stroke="#0058FF" stroke-width="31.1335" stroke-linecap="round" stroke-linejoin="round"/>
<rect width="373.603" height="373.603" transform="matrix(0 -1 1 0 150.008 335.782)" fill="#387DFF"/>
<path d="M235.632 250.163L282.332 203.463M235.632 47.795L282.332 94.4953M212.282 164.546C216.41 164.546 220.37 162.906 223.289 159.986C226.208 157.067 227.848 153.108 227.848 148.979C227.848 144.85 226.208 140.891 223.289 137.972C220.37 135.052 216.41 133.412 212.282 133.412C208.153 133.412 204.194 135.052 201.274 137.972C198.355 140.891 196.715 144.85 196.715 148.979C196.715 153.108 198.355 157.067 201.274 159.986C204.194 162.906 208.153 164.546 212.282 164.546Z" stroke="#0058FF" stroke-width="31.1335" stroke-linecap="round" stroke-linejoin="round"/>
<rect width="373.603" height="373.603" transform="matrix(0 -1 1 0 150.008 1129.21)" fill="#387DFF"/>
<path d="M235.632 1043.59L282.332 996.893M235.632 841.226L282.332 887.926M212.282 957.976C216.41 957.976 220.37 956.336 223.289 953.417C226.208 950.498 227.848 946.538 227.848 942.41C227.848 938.281 226.208 934.322 223.289 931.402C220.37 928.483 216.41 926.843 212.282 926.843C208.153 926.843 204.194 928.483 201.274 931.402C198.355 934.322 196.715 938.281 196.715 942.41C196.715 946.538 198.355 950.498 201.274 953.417C204.194 956.336 208.153 957.976 212.282 957.976Z" stroke="#0058FF" stroke-width="31.1335" stroke-linecap="round" stroke-linejoin="round"/>
<rect width="373.603" height="373.603" transform="matrix(0 -1 1 0 149.941 597.305)" fill="#387DFF"/>
<path d="M235.561 511.686L282.262 464.985M235.561 309.317L282.262 356.018M212.211 426.068C216.34 426.068 220.299 424.428 223.219 421.509C226.138 418.59 227.778 414.63 227.778 410.502C227.778 406.373 226.138 402.413 223.219 399.494C220.299 396.575 216.34 394.935 212.211 394.935C208.083 394.935 204.123 396.575 201.204 399.494C198.285 402.413 196.645 406.373 196.645 410.502C196.645 414.63 198.285 418.59 201.204 421.509C204.123 424.428 208.083 426.068 212.211 426.068Z" stroke="#0058FF" stroke-width="31.1335" stroke-linecap="round" stroke-linejoin="round"/>
<rect width="373.603" height="373.603" transform="matrix(0 -1 1 0 149.941 1390.73)" fill="#387DFF"/>
<path d="M235.561 1305.12L282.262 1258.41M235.561 1102.75L282.262 1149.45M212.211 1219.5C216.34 1219.5 220.299 1217.86 223.219 1214.94C226.138 1212.02 227.778 1208.06 227.778 1203.93C227.778 1199.8 226.138 1195.84 223.219 1192.92C220.299 1190 216.34 1188.36 212.211 1188.36C208.083 1188.36 204.123 1190 201.204 1192.92C198.285 1195.84 196.645 1199.8 196.645 1203.93C196.645 1208.06 198.285 1212.02 201.204 1214.94C204.123 1217.86 208.083 1219.5 212.211 1219.5Z" stroke="#0058FF" stroke-width="31.1335" stroke-linecap="round" stroke-linejoin="round"/>
<rect width="373.603" height="373.603" transform="matrix(0 -1 1 0 149.941 862.898)" fill="#387DFF"/>
<path d="M235.561 777.28L282.262 730.58M235.561 574.912L282.262 621.613M212.211 691.663C216.34 691.663 220.299 690.023 223.219 687.104C226.138 684.184 227.778 680.225 227.778 676.096C227.778 671.968 226.138 668.008 223.219 665.089C220.299 662.17 216.34 660.529 212.211 660.529C208.083 660.529 204.123 662.17 201.204 665.089C198.285 668.008 196.645 671.968 196.645 676.096C196.645 680.225 198.285 684.184 201.204 687.104C204.123 690.023 208.083 691.663 212.211 691.663Z" stroke="#0058FF" stroke-width="31.1335" stroke-linecap="round" stroke-linejoin="round"/>
<rect width="373.603" height="373.603" transform="matrix(0 -1 1 0 169.023 1656.33)" fill="#387DFF"/>
<path d="M254.647 1570.71L301.348 1524.01M254.647 1368.34L301.348 1415.04M231.297 1485.09C235.426 1485.09 239.385 1483.45 242.305 1480.53C245.224 1477.61 246.864 1473.65 246.864 1469.53C246.864 1465.4 245.224 1461.44 242.305 1458.52C239.385 1455.6 235.426 1453.96 231.297 1453.96C227.169 1453.96 223.209 1455.6 220.29 1458.52C217.371 1461.44 215.73 1465.4 215.73 1469.53C215.73 1473.65 217.371 1477.61 220.29 1480.53C223.209 1483.45 227.169 1485.09 231.297 1485.09Z" stroke="#0058FF" stroke-width="31.1335" stroke-linecap="round" stroke-linejoin="round"/>
<rect width="373.603" height="373.603" transform="matrix(0 -1 1 0 319.031 335.714)" fill="#387DFF"/>
<path d="M404.651 250.097L451.352 203.396M404.651 47.7286L451.352 94.4289M381.301 164.479C385.43 164.479 389.389 162.839 392.309 159.92C395.228 157.001 396.868 153.041 396.868 148.913C396.868 144.784 395.228 140.825 392.309 137.905C389.389 134.986 385.43 133.346 381.301 133.346C377.173 133.346 373.213 134.986 370.294 137.905C367.374 140.825 365.734 144.784 365.734 148.913C365.734 153.041 367.374 157.001 370.294 159.92C373.213 162.839 377.173 164.479 381.301 164.479Z" stroke="#0058FF" stroke-width="31.1335" stroke-linecap="round" stroke-linejoin="round"/>
<rect width="373.603" height="373.603" transform="matrix(0 -1 1 0 319.031 1129.14)" fill="#387DFF"/>
<path d="M404.651 1043.53L451.352 996.825M404.651 841.157L451.352 887.858M381.301 957.908C385.43 957.908 389.389 956.268 392.309 953.349C395.228 950.429 396.868 946.47 396.868 942.341C396.868 938.213 395.228 934.253 392.309 931.334C389.389 928.415 385.43 926.775 381.301 926.775C377.173 926.775 373.213 928.415 370.294 931.334C367.374 934.253 365.734 938.213 365.734 942.341C365.734 946.47 367.374 950.429 370.294 953.349C373.213 956.268 377.173 957.908 381.301 957.908Z" stroke="#0058FF" stroke-width="31.1335" stroke-linecap="round" stroke-linejoin="round"/>
<rect width="373.603" height="373.603" transform="matrix(0 -1 1 0 318.965 597.231)" fill="#387DFF"/>
<path d="M404.581 511.612L451.281 464.912M404.581 309.244L451.281 355.945M381.231 425.995C385.359 425.995 389.319 424.355 392.238 421.436C395.158 418.516 396.798 414.557 396.798 410.428C396.798 406.3 395.158 402.34 392.238 399.421C389.319 396.502 385.359 394.861 381.231 394.861C377.102 394.861 373.143 396.502 370.223 399.421C367.304 402.34 365.664 406.3 365.664 410.428C365.664 414.557 367.304 418.516 370.223 421.436C373.143 424.355 377.102 425.995 381.231 425.995Z" stroke="#0058FF" stroke-width="31.1335" stroke-linecap="round" stroke-linejoin="round"/>
<rect width="373.603" height="373.603" transform="matrix(0 -1 1 0 318.965 1390.66)" fill="#387DFF"/>
<path d="M404.581 1305.04L451.281 1258.34M404.581 1102.67L451.281 1149.37M381.231 1219.42C385.359 1219.42 389.319 1217.78 392.238 1214.87C395.158 1211.95 396.798 1207.99 396.798 1203.86C396.798 1199.73 395.158 1195.77 392.238 1192.85C389.319 1189.93 385.359 1188.29 381.231 1188.29C377.102 1188.29 373.143 1189.93 370.223 1192.85C367.304 1195.77 365.664 1199.73 365.664 1203.86C365.664 1207.99 367.304 1211.95 370.223 1214.87C373.143 1217.78 377.102 1219.42 381.231 1219.42Z" stroke="#0058FF" stroke-width="31.1335" stroke-linecap="round" stroke-linejoin="round"/>
<rect width="373.603" height="373.603" transform="matrix(0 -1 1 0 318.965 862.826)" fill="#387DFF"/>
<path d="M404.581 777.21L451.281 730.51M404.581 574.842L451.281 621.542M381.231 691.593C385.359 691.593 389.319 689.953 392.238 687.033C395.158 684.114 396.798 680.154 396.798 676.026C396.798 671.897 395.158 667.938 392.238 665.019C389.319 662.099 385.359 660.459 381.231 660.459C377.102 660.459 373.143 662.099 370.223 665.019C367.304 667.938 365.664 671.897 365.664 676.026C365.664 680.154 367.304 684.114 370.223 687.033C373.143 689.953 377.102 691.593 381.231 691.593Z" stroke="#0058FF" stroke-width="31.1335" stroke-linecap="round" stroke-linejoin="round"/>
<rect width="373.603" height="373.603" transform="matrix(0 -1 1 0 338.051 1656.26)" fill="#387DFF"/>
<path d="M423.667 1570.64L470.367 1523.94M423.667 1368.27L470.367 1414.97M400.317 1485.02C404.445 1485.02 408.405 1483.38 411.324 1480.46C414.243 1477.54 415.884 1473.58 415.884 1469.46C415.884 1465.33 414.243 1461.37 411.324 1458.45C408.405 1455.53 404.445 1453.89 400.317 1453.89C396.188 1453.89 392.229 1455.53 389.309 1458.45C386.39 1461.37 384.75 1465.33 384.75 1469.46C384.75 1473.58 386.39 1477.54 389.309 1480.46C392.229 1483.38 396.188 1485.02 400.317 1485.02Z" stroke="#0058FF" stroke-width="31.1335" stroke-linecap="round" stroke-linejoin="round"/>
<rect width="373.603" height="373.603" transform="matrix(0 -1 1 0 488.059 335.641)" fill="#387DFF"/>
<path d="M573.679 250.022L620.379 203.322M573.679 47.6544L620.379 94.3547M550.328 164.405C554.457 164.405 558.417 162.765 561.336 159.846C564.255 156.926 565.895 152.967 565.895 148.838C565.895 144.71 564.255 140.75 561.336 137.831C558.417 134.912 554.457 133.272 550.328 133.272C546.2 133.272 542.24 134.912 539.321 137.831C536.402 140.75 534.762 144.71 534.762 148.838C534.762 152.967 536.402 156.926 539.321 159.846C542.24 162.765 546.2 164.405 550.328 164.405Z" stroke="#0058FF" stroke-width="31.1335" stroke-linecap="round" stroke-linejoin="round"/>
<rect width="373.603" height="373.603" transform="matrix(0 -1 1 0 488.059 1129.07)" fill="#387DFF"/>
<path d="M573.679 1043.45L620.379 996.752M573.679 841.084L620.379 887.784M550.328 957.835C554.457 957.835 558.417 956.195 561.336 953.275C564.255 950.356 565.895 946.397 565.895 942.268C565.895 938.14 564.255 934.18 561.336 931.261C558.417 928.341 554.457 926.701 550.328 926.701C546.2 926.701 542.24 928.341 539.321 931.261C536.402 934.18 534.762 938.14 534.762 942.268C534.762 946.397 536.402 950.356 539.321 953.275C542.24 956.195 546.2 957.835 550.328 957.835Z" stroke="#0058FF" stroke-width="31.1335" stroke-linecap="round" stroke-linejoin="round"/>
<rect width="373.603" height="373.603" transform="matrix(0 -1 1 0 487.984 597.163)" fill="#387DFF"/>
<path d="M573.604 511.545L620.305 464.845M573.604 309.177L620.305 355.877M550.254 425.928C554.383 425.928 558.342 424.288 561.262 421.368C564.181 418.449 565.821 414.489 565.821 410.361C565.821 406.232 564.181 402.273 561.262 399.354C558.342 396.434 554.383 394.794 550.254 394.794C546.126 394.794 542.166 396.434 539.247 399.354C536.328 402.273 534.688 406.232 534.688 410.361C534.688 414.489 536.328 418.449 539.247 421.368C542.166 424.288 546.126 425.928 550.254 425.928Z" stroke="#0058FF" stroke-width="31.1335" stroke-linecap="round" stroke-linejoin="round"/>
<rect width="373.603" height="373.603" transform="matrix(0 -1 1 0 487.984 1390.59)" fill="#387DFF"/>
<path d="M573.604 1304.97L620.305 1258.27M573.604 1102.61L620.305 1149.31M550.254 1219.36C554.383 1219.36 558.342 1217.72 561.262 1214.8C564.181 1211.88 565.821 1207.92 565.821 1203.79C565.821 1199.66 564.181 1195.7 561.262 1192.78C558.342 1189.86 554.383 1188.22 550.254 1188.22C546.126 1188.22 542.166 1189.86 539.247 1192.78C536.328 1195.7 534.688 1199.66 534.688 1203.79C534.688 1207.92 536.328 1211.88 539.247 1214.8C542.166 1217.72 546.126 1219.36 550.254 1219.36Z" stroke="#0058FF" stroke-width="31.1335" stroke-linecap="round" stroke-linejoin="round"/>
<rect width="373.603" height="373.603" transform="matrix(0 -1 1 0 487.984 862.758)" fill="#387DFF"/>
<path d="M573.604 777.139L620.305 730.438M573.604 574.771L620.305 621.471M550.254 691.521C554.383 691.521 558.342 689.881 561.262 686.962C564.181 684.043 565.821 680.083 565.821 675.955C565.821 671.826 564.181 667.867 561.262 664.947C558.342 662.028 554.383 660.388 550.254 660.388C546.126 660.388 542.166 662.028 539.247 664.947C536.328 667.867 534.688 671.826 534.688 675.955C534.688 680.083 536.328 684.043 539.247 686.962C542.166 689.881 546.126 691.521 550.254 691.521Z" stroke="#0058FF" stroke-width="31.1335" stroke-linecap="round" stroke-linejoin="round"/>
<rect width="373.603" height="373.603" transform="matrix(0 -1 1 0 507.07 1656.19)" fill="#387DFF"/>
<path d="M592.69 1570.57L639.391 1523.87M592.69 1368.2L639.391 1414.9M569.34 1484.95C573.469 1484.95 577.428 1483.31 580.348 1480.39C583.267 1477.47 584.907 1473.51 584.907 1469.38C584.907 1465.26 583.267 1461.3 580.348 1458.38C577.428 1455.46 573.469 1453.82 569.34 1453.82C565.212 1453.82 561.252 1455.46 558.333 1458.38C555.414 1461.3 553.773 1465.26 553.773 1469.38C553.773 1473.51 555.414 1477.47 558.333 1480.39C561.252 1483.31 565.212 1484.95 569.34 1484.95Z" stroke="#0058FF" stroke-width="31.1335" stroke-linecap="round" stroke-linejoin="round"/>
<rect width="373.603" height="373.603" transform="matrix(0 -1 1 0 657.082 335.572)" fill="#387DFF"/>
<path d="M742.694 249.955L789.395 203.255M742.694 47.587L789.395 94.2873M719.344 164.338C723.473 164.338 727.432 162.698 730.351 159.778C733.271 156.859 734.911 152.9 734.911 148.771C734.911 144.642 733.271 140.683 730.351 137.764C727.432 134.844 723.473 133.204 719.344 133.204C715.216 133.204 711.256 134.844 708.337 137.764C705.417 140.683 703.777 144.642 703.777 148.771C703.777 152.9 705.417 156.859 708.337 159.778C711.256 162.698 715.216 164.338 719.344 164.338Z" stroke="#0058FF" stroke-width="31.1335" stroke-linecap="round" stroke-linejoin="round"/>
<rect width="373.603" height="373.603" transform="matrix(0 -1 1 0 657.082 1129)" fill="#387DFF"/>
<path d="M742.694 1043.39L789.395 996.685M742.694 841.018L789.395 887.718M719.344 957.768C723.473 957.768 727.432 956.128 730.351 953.209C733.271 950.29 734.911 946.33 734.911 942.202C734.911 938.073 733.271 934.114 730.351 931.194C727.432 928.275 723.473 926.635 719.344 926.635C715.216 926.635 711.256 928.275 708.337 931.194C705.417 934.114 703.777 938.073 703.777 942.202C703.777 946.33 705.417 950.29 708.337 953.209C711.256 956.128 715.216 957.768 719.344 957.768Z" stroke="#0058FF" stroke-width="31.1335" stroke-linecap="round" stroke-linejoin="round"/>
<rect width="373.603" height="373.603" transform="matrix(0 -1 1 0 657.012 597.091)" fill="#387DFF"/>
<path d="M742.624 511.473L789.324 464.772M742.624 309.105L789.324 355.805M719.274 425.855C723.402 425.855 727.362 424.215 730.281 421.296C733.201 418.377 734.841 414.417 734.841 410.289C734.841 406.16 733.201 402.201 730.281 399.281C727.362 396.362 723.402 394.722 719.274 394.722C715.145 394.722 711.186 396.362 708.266 399.281C705.347 402.201 703.707 406.16 703.707 410.289C703.707 414.417 705.347 418.377 708.266 421.296C711.186 424.215 715.145 425.855 719.274 425.855Z" stroke="#0058FF" stroke-width="31.1335" stroke-linecap="round" stroke-linejoin="round"/>
<rect width="373.603" height="373.603" transform="matrix(0 -1 1 0 657.012 1390.52)" fill="#387DFF"/>
<path d="M742.624 1304.9L789.324 1258.2M742.624 1102.53L789.324 1149.23M719.274 1219.29C723.402 1219.29 727.362 1217.65 730.281 1214.73C733.201 1211.81 734.841 1207.85 734.841 1203.72C734.841 1199.59 733.201 1195.63 730.281 1192.71C727.362 1189.79 723.402 1188.15 719.274 1188.15C715.145 1188.15 711.186 1189.79 708.266 1192.71C705.347 1195.63 703.707 1199.59 703.707 1203.72C703.707 1207.85 705.347 1211.81 708.266 1214.73C711.186 1217.65 715.145 1219.29 719.274 1219.29Z" stroke="#0058FF" stroke-width="31.1335" stroke-linecap="round" stroke-linejoin="round"/>
<rect width="373.603" height="373.603" transform="matrix(0 -1 1 0 657.012 862.686)" fill="#387DFF"/>
<path d="M742.624 777.068L789.324 730.368M742.624 574.7L789.324 621.401M719.274 691.451C723.402 691.451 727.362 689.811 730.281 686.892C733.201 683.972 734.841 680.013 734.841 675.884C734.841 671.756 733.201 667.796 730.281 664.877C727.362 661.958 723.402 660.318 719.274 660.318C715.145 660.318 711.186 661.958 708.266 664.877C705.347 667.796 703.707 671.756 703.707 675.884C703.707 680.013 705.347 683.972 708.266 686.892C711.186 689.811 715.145 691.451 719.274 691.451Z" stroke="#0058FF" stroke-width="31.1335" stroke-linecap="round" stroke-linejoin="round"/>
<rect width="373.603" height="373.603" transform="matrix(0 -1 1 0 676.098 1656.12)" fill="#387DFF"/>
<path d="M761.71 1570.5L808.41 1523.8M761.71 1368.13L808.41 1414.83M738.36 1484.88C742.488 1484.88 746.448 1483.24 749.367 1480.32C752.286 1477.4 753.927 1473.44 753.927 1469.31C753.927 1465.19 752.286 1461.23 749.367 1458.31C746.448 1455.39 742.488 1453.75 738.36 1453.75C734.231 1453.75 730.272 1455.39 727.352 1458.31C724.433 1461.23 722.793 1465.19 722.793 1469.31C722.793 1473.44 724.433 1477.4 727.352 1480.32C730.272 1483.24 734.231 1484.88 738.36 1484.88Z" stroke="#0058FF" stroke-width="31.1335" stroke-linecap="round" stroke-linejoin="round"/>
<rect width="373.603" height="373.603" transform="matrix(0 -1 1 0 826.105 335.501)" fill="#387DFF"/>
<path d="M911.726 249.882L958.426 203.182M911.726 47.5137L958.426 94.2141M888.375 164.265C892.504 164.265 896.463 162.625 899.383 159.705C902.302 156.786 903.942 152.826 903.942 148.698C903.942 144.569 902.302 140.61 899.383 137.69C896.463 134.771 892.504 133.131 888.375 133.131C884.247 133.131 880.287 134.771 877.368 137.69C874.449 140.61 872.809 144.569 872.809 148.698C872.809 152.826 874.449 156.786 877.368 159.705C880.287 162.625 884.247 164.265 888.375 164.265Z" stroke="#0058FF" stroke-width="31.1335" stroke-linecap="round" stroke-linejoin="round"/>
<rect width="373.603" height="373.603" transform="matrix(0 -1 1 0 826.105 1128.93)" fill="#387DFF"/>
<path d="M911.726 1043.31L958.426 996.612M911.726 840.944L958.426 887.645M888.375 957.695C892.504 957.695 896.463 956.055 899.383 953.136C902.302 950.217 903.942 946.257 903.942 942.128C903.942 938 902.302 934.04 899.383 931.121C896.463 928.202 892.504 926.562 888.375 926.562C884.247 926.562 880.287 928.202 877.368 931.121C874.449 934.04 872.809 938 872.809 942.128C872.809 946.257 874.449 950.217 877.368 953.136C880.287 956.055 884.247 957.695 888.375 957.695Z" stroke="#0058FF" stroke-width="31.1335" stroke-linecap="round" stroke-linejoin="round"/>
<rect width="373.603" height="373.603" transform="matrix(0 -1 1 0 826.035 597.021)" fill="#387DFF"/>
<path d="M911.659 511.403L958.359 464.703M911.659 309.035L958.359 355.736M888.309 425.786C892.438 425.786 896.397 424.146 899.316 421.227C902.236 418.307 903.876 414.348 903.876 410.219C903.876 406.091 902.236 402.131 899.316 399.212C896.397 396.293 892.438 394.653 888.309 394.653C884.18 394.653 880.221 396.293 877.302 399.212C874.382 402.131 872.742 406.091 872.742 410.219C872.742 414.348 874.382 418.307 877.302 421.227C880.221 424.146 884.18 425.786 888.309 425.786Z" stroke="#0058FF" stroke-width="31.1335" stroke-linecap="round" stroke-linejoin="round"/>
<rect width="373.603" height="373.603" transform="matrix(0 -1 1 0 826.035 1390.45)" fill="#387DFF"/>
<path d="M911.659 1304.83L958.359 1258.13M911.659 1102.46L958.359 1149.17M888.309 1219.22C892.438 1219.22 896.397 1217.58 899.316 1214.66C902.236 1211.74 903.876 1207.78 903.876 1203.65C903.876 1199.52 902.236 1195.56 899.316 1192.64C896.397 1189.72 892.438 1188.08 888.309 1188.08C884.18 1188.08 880.221 1189.72 877.302 1192.64C874.382 1195.56 872.742 1199.52 872.742 1203.65C872.742 1207.78 874.382 1211.74 877.302 1214.66C880.221 1217.58 884.18 1219.22 888.309 1219.22Z" stroke="#0058FF" stroke-width="31.1335" stroke-linecap="round" stroke-linejoin="round"/>
<rect width="373.603" height="373.603" transform="matrix(0 -1 1 0 826.035 862.616)" fill="#387DFF"/>
<path d="M911.659 776.997L958.359 730.297M911.659 574.629L958.359 621.329M888.309 691.38C892.438 691.38 896.397 689.74 899.316 686.82C902.236 683.901 903.876 679.942 903.876 675.813C903.876 671.684 902.236 667.725 899.316 664.806C896.397 661.886 892.438 660.246 888.309 660.246C884.18 660.246 880.221 661.886 877.302 664.806C874.382 667.725 872.742 671.684 872.742 675.813C872.742 679.942 874.382 683.901 877.302 686.82C880.221 689.74 884.18 691.38 888.309 691.38Z" stroke="#0058FF" stroke-width="31.1335" stroke-linecap="round" stroke-linejoin="round"/>
<rect width="373.603" height="373.603" transform="matrix(0 -1 1 0 845.125 1656.05)" fill="#387DFF"/>
<path d="M930.741 1570.43L977.441 1523.73M930.741 1368.06L977.441 1414.76M907.391 1484.81C911.52 1484.81 915.479 1483.17 918.398 1480.25C921.318 1477.33 922.958 1473.37 922.958 1469.24C922.958 1465.11 921.318 1461.15 918.398 1458.24C915.479 1455.32 911.52 1453.68 907.391 1453.68C903.262 1453.68 899.303 1455.32 896.384 1458.24C893.464 1461.15 891.824 1465.11 891.824 1469.24C891.824 1473.37 893.464 1477.33 896.384 1480.25C899.303 1483.17 903.262 1484.81 907.391 1484.81Z" stroke="#0058FF" stroke-width="31.1335" stroke-linecap="round" stroke-linejoin="round"/>
<rect width="373.603" height="373.603" transform="matrix(0 -1 1 0 995.133 335.431)" fill="#387DFF"/>
<path d="M1080.75 249.814L1127.45 203.114M1080.75 47.4464L1127.45 94.1467M1057.39 164.197C1061.52 164.197 1065.48 162.557 1068.4 159.638C1071.32 156.718 1072.96 152.759 1072.96 148.63C1072.96 144.502 1071.32 140.542 1068.4 137.623C1065.48 134.704 1061.52 133.064 1057.39 133.064C1053.27 133.064 1049.31 134.704 1046.39 137.623C1043.47 140.542 1041.83 144.502 1041.83 148.63C1041.83 152.759 1043.47 156.718 1046.39 159.638C1049.31 162.557 1053.27 164.197 1057.39 164.197Z" stroke="#0058FF" stroke-width="31.1335" stroke-linecap="round" stroke-linejoin="round"/>
<rect width="373.603" height="373.603" transform="matrix(0 -1 1 0 995.133 1128.86)" fill="#387DFF"/>
<path d="M1080.75 1043.24L1127.45 996.543M1080.75 840.875L1127.45 887.575M1057.39 957.626C1061.52 957.626 1065.48 955.986 1068.4 953.067C1071.32 950.147 1072.96 946.188 1072.96 942.059C1072.96 937.931 1071.32 933.971 1068.4 931.052C1065.48 928.132 1061.52 926.492 1057.39 926.492C1053.27 926.492 1049.31 928.132 1046.39 931.052C1043.47 933.971 1041.83 937.931 1041.83 942.059C1041.83 946.188 1043.47 950.147 1046.39 953.067C1049.31 955.986 1053.27 957.626 1057.39 957.626Z" stroke="#0058FF" stroke-width="31.1335" stroke-linecap="round" stroke-linejoin="round"/>
<rect width="373.603" height="373.603" transform="matrix(0 -1 1 0 995.062 596.949)" fill="#387DFF"/>
<path d="M1080.68 511.333L1127.38 464.633M1080.68 308.965L1127.38 355.665M1057.33 425.716C1061.46 425.716 1065.42 424.076 1068.34 421.156C1071.26 418.237 1072.9 414.278 1072.9 410.149C1072.9 406.02 1071.26 402.061 1068.34 399.142C1065.42 396.222 1061.46 394.582 1057.33 394.582C1053.2 394.582 1049.24 396.222 1046.32 399.142C1043.4 402.061 1041.76 406.02 1041.76 410.149C1041.76 414.278 1043.4 418.237 1046.32 421.156C1049.24 424.076 1053.2 425.716 1057.33 425.716Z" stroke="#0058FF" stroke-width="31.1335" stroke-linecap="round" stroke-linejoin="round"/>
<rect width="373.603" height="373.603" transform="matrix(0 -1 1 0 995.062 1390.38)" fill="#387DFF"/>
<path d="M1080.68 1304.76L1127.38 1258.06M1080.68 1102.39L1127.38 1149.09M1057.33 1219.15C1061.46 1219.15 1065.42 1217.51 1068.34 1214.59C1071.26 1211.67 1072.9 1207.71 1072.9 1203.58C1072.9 1199.45 1071.26 1195.49 1068.34 1192.57C1065.42 1189.65 1061.46 1188.01 1057.33 1188.01C1053.2 1188.01 1049.24 1189.65 1046.32 1192.57C1043.4 1195.49 1041.76 1199.45 1041.76 1203.58C1041.76 1207.71 1043.4 1211.67 1046.32 1214.59C1049.24 1217.51 1053.2 1219.15 1057.33 1219.15Z" stroke="#0058FF" stroke-width="31.1335" stroke-linecap="round" stroke-linejoin="round"/>
<rect width="373.603" height="373.603" transform="matrix(0 -1 1 0 995.062 862.544)" fill="#387DFF"/>
<path d="M1080.68 776.928L1127.38 730.227M1080.68 574.56L1127.38 621.26M1057.33 691.31C1061.46 691.31 1065.42 689.67 1068.34 686.751C1071.26 683.832 1072.9 679.872 1072.9 675.744C1072.9 671.615 1071.26 667.656 1068.34 664.736C1065.42 661.817 1061.46 660.177 1057.33 660.177C1053.2 660.177 1049.24 661.817 1046.32 664.736C1043.4 667.656 1041.76 671.615 1041.76 675.744C1041.76 679.872 1043.4 683.832 1046.32 686.751C1049.24 689.67 1053.2 691.31 1057.33 691.31Z" stroke="#0058FF" stroke-width="31.1335" stroke-linecap="round" stroke-linejoin="round"/>
<rect width="373.603" height="373.603" transform="matrix(0 -1 1 0 1014.15 1655.97)" fill="#387DFF"/>
<path d="M1099.76 1570.36L1146.46 1523.66M1099.76 1367.99L1146.46 1414.69M1076.41 1484.74C1080.54 1484.74 1084.5 1483.1 1087.42 1480.18C1090.34 1477.26 1091.98 1473.3 1091.98 1469.17C1091.98 1465.04 1090.34 1461.09 1087.42 1458.17C1084.5 1455.25 1080.54 1453.61 1076.41 1453.61C1072.28 1453.61 1068.32 1455.25 1065.4 1458.17C1062.48 1461.09 1060.84 1465.04 1060.84 1469.17C1060.84 1473.3 1062.48 1477.26 1065.4 1480.18C1068.32 1483.1 1072.28 1484.74 1076.41 1484.74Z" stroke="#0058FF" stroke-width="31.1335" stroke-linecap="round" stroke-linejoin="round"/>
<rect width="373.603" height="373.603" transform="matrix(0 -1 1 0 1164.31 335.854)" fill="#387DFF"/>
<path d="M1249.92 250.238L1296.63 203.538M1249.92 47.8702L1296.63 94.5705M1226.57 164.621C1230.7 164.621 1234.66 162.981 1237.58 160.062C1240.5 157.142 1242.14 153.183 1242.14 149.054C1242.14 144.926 1240.5 140.966 1237.58 138.047C1234.66 135.128 1230.7 133.487 1226.57 133.487C1222.45 133.487 1218.49 135.128 1215.57 138.047C1212.65 140.966 1211.01 144.926 1211.01 149.054C1211.01 153.183 1212.65 157.142 1215.57 160.062C1218.49 162.981 1222.45 164.621 1226.57 164.621Z" stroke="#0058FF" stroke-width="31.1335" stroke-linecap="round" stroke-linejoin="round"/>
<rect width="373.603" height="373.603" transform="matrix(0 -1 1 0 1164.31 1129.28)" fill="#387DFF"/>
<path d="M1249.92 1043.67L1296.63 996.967M1249.92 841.299L1296.63 887.999M1226.57 958.05C1230.7 958.05 1234.66 956.41 1237.58 953.49C1240.5 950.571 1242.14 946.612 1242.14 942.483C1242.14 938.354 1240.5 934.395 1237.58 931.476C1234.66 928.556 1230.7 926.916 1226.57 926.916C1222.45 926.916 1218.49 928.556 1215.57 931.476C1212.65 934.395 1211.01 938.354 1211.01 942.483C1211.01 946.612 1212.65 950.571 1215.57 953.49C1218.49 956.41 1222.45 958.05 1226.57 958.05Z" stroke="#0058FF" stroke-width="31.1335" stroke-linecap="round" stroke-linejoin="round"/>
<rect width="373.603" height="373.603" transform="matrix(0 -1 1 0 1164.24 597.373)" fill="#387DFF"/>
<path d="M1249.86 511.754L1296.56 465.054M1249.86 309.386L1296.56 356.086M1226.51 426.137C1230.64 426.137 1234.6 424.497 1237.52 421.577C1240.43 418.658 1242.07 414.698 1242.07 410.57C1242.07 406.441 1240.43 402.482 1237.52 399.562C1234.6 396.643 1230.64 395.003 1226.51 395.003C1222.38 395.003 1218.42 396.643 1215.5 399.562C1212.58 402.482 1210.94 406.441 1210.94 410.57C1210.94 414.698 1212.58 418.658 1215.5 421.577C1218.42 424.497 1222.38 426.137 1226.51 426.137Z" stroke="#0058FF" stroke-width="31.1335" stroke-linecap="round" stroke-linejoin="round"/>
<rect width="373.603" height="373.603" transform="matrix(0 -1 1 0 1164.24 1390.8)" fill="#387DFF"/>
<path d="M1249.86 1305.18L1296.56 1258.48M1249.86 1102.82L1296.56 1149.52M1226.51 1219.57C1230.64 1219.57 1234.6 1217.93 1237.52 1215.01C1240.43 1212.09 1242.07 1208.13 1242.07 1204C1242.07 1199.87 1240.43 1195.91 1237.52 1192.99C1234.6 1190.07 1230.64 1188.43 1226.51 1188.43C1222.38 1188.43 1218.42 1190.07 1215.5 1192.99C1212.58 1195.91 1210.94 1199.87 1210.94 1204C1210.94 1208.13 1212.58 1212.09 1215.5 1215.01C1218.42 1217.93 1222.38 1219.57 1226.51 1219.57Z" stroke="#0058FF" stroke-width="31.1335" stroke-linecap="round" stroke-linejoin="round"/>
<rect width="373.603" height="373.603" transform="matrix(0 -1 1 0 1164.24 862.968)" fill="#387DFF"/>
<path d="M1249.86 777.352L1296.56 730.651M1249.86 574.983L1296.56 621.684M1226.51 691.734C1230.64 691.734 1234.6 690.094 1237.52 687.175C1240.43 684.256 1242.07 680.296 1242.07 676.168C1242.07 672.039 1240.43 668.079 1237.52 665.16C1234.6 662.241 1230.64 660.601 1226.51 660.601C1222.38 660.601 1218.42 662.241 1215.5 665.16C1212.58 668.079 1210.94 672.039 1210.94 676.168C1210.94 680.296 1212.58 684.256 1215.5 687.175C1218.42 690.094 1222.38 691.734 1226.51 691.734Z" stroke="#0058FF" stroke-width="31.1335" stroke-linecap="round" stroke-linejoin="round"/>
<rect width="373.603" height="373.603" transform="matrix(0 -1 1 0 1183.33 1656.4)" fill="#387DFF"/>
<path d="M1268.94 1570.78L1315.64 1524.08M1268.94 1368.41L1315.64 1415.11M1245.59 1485.16C1249.72 1485.16 1253.68 1483.52 1256.6 1480.6C1259.52 1477.69 1261.16 1473.73 1261.16 1469.6C1261.16 1465.47 1259.52 1461.51 1256.6 1458.59C1253.68 1455.67 1249.72 1454.03 1245.59 1454.03C1241.46 1454.03 1237.5 1455.67 1234.58 1458.59C1231.66 1461.51 1230.02 1465.47 1230.02 1469.6C1230.02 1473.73 1231.66 1477.69 1234.58 1480.6C1237.5 1483.52 1241.46 1485.16 1245.59 1485.16Z" stroke="#0058FF" stroke-width="31.1335" stroke-linecap="round" stroke-linejoin="round"/>
<rect width="373.603" height="373.603" transform="matrix(0 -1 1 0 1333.34 335.782)" fill="#387DFF"/>
<path d="M1418.96 250.163L1465.66 203.463M1418.96 47.795L1465.66 94.4953M1395.61 164.546C1399.74 164.546 1403.7 162.906 1406.62 159.986C1409.54 157.067 1411.18 153.108 1411.18 148.979C1411.18 144.85 1409.54 140.891 1406.62 137.972C1403.7 135.052 1399.74 133.412 1395.61 133.412C1391.48 133.412 1387.52 135.052 1384.6 137.972C1381.68 140.891 1380.04 144.85 1380.04 148.979C1380.04 153.108 1381.68 157.067 1384.6 159.986C1387.52 162.906 1391.48 164.546 1395.61 164.546Z" stroke="#0058FF" stroke-width="31.1335" stroke-linecap="round" stroke-linejoin="round"/>
<rect width="373.603" height="373.603" transform="matrix(0 -1 1 0 1333.34 1129.21)" fill="#387DFF"/>
<path d="M1418.96 1043.59L1465.66 996.893M1418.96 841.226L1465.66 887.926M1395.61 957.976C1399.74 957.976 1403.7 956.336 1406.62 953.417C1409.54 950.498 1411.18 946.538 1411.18 942.41C1411.18 938.281 1409.54 934.322 1406.62 931.402C1403.7 928.483 1399.74 926.843 1395.61 926.843C1391.48 926.843 1387.52 928.483 1384.6 931.402C1381.68 934.322 1380.04 938.281 1380.04 942.41C1380.04 946.538 1381.68 950.498 1384.6 953.417C1387.52 956.336 1391.48 957.976 1395.61 957.976Z" stroke="#0058FF" stroke-width="31.1335" stroke-linecap="round" stroke-linejoin="round"/>
<rect width="373.603" height="373.603" transform="matrix(0 -1 1 0 1333.27 597.305)" fill="#387DFF"/>
<path d="M1418.89 511.686L1465.59 464.985M1418.89 309.317L1465.59 356.018M1395.54 426.068C1399.67 426.068 1403.63 424.428 1406.55 421.509C1409.47 418.59 1411.11 414.63 1411.11 410.502C1411.11 406.373 1409.47 402.413 1406.55 399.494C1403.63 396.575 1399.67 394.935 1395.54 394.935C1391.41 394.935 1387.45 396.575 1384.53 399.494C1381.61 402.413 1379.97 406.373 1379.97 410.502C1379.97 414.63 1381.61 418.59 1384.53 421.509C1387.45 424.428 1391.41 426.068 1395.54 426.068Z" stroke="#0058FF" stroke-width="31.1335" stroke-linecap="round" stroke-linejoin="round"/>
<rect width="373.603" height="373.603" transform="matrix(0 -1 1 0 1333.27 1390.73)" fill="#387DFF"/>
<path d="M1418.89 1305.12L1465.59 1258.41M1418.89 1102.75L1465.59 1149.45M1395.54 1219.5C1399.67 1219.5 1403.63 1217.86 1406.55 1214.94C1409.47 1212.02 1411.11 1208.06 1411.11 1203.93C1411.11 1199.8 1409.47 1195.84 1406.55 1192.92C1403.63 1190 1399.67 1188.36 1395.54 1188.36C1391.41 1188.36 1387.45 1190 1384.53 1192.92C1381.61 1195.84 1379.97 1199.8 1379.97 1203.93C1379.97 1208.06 1381.61 1212.02 1384.53 1214.94C1387.45 1217.86 1391.41 1219.5 1395.54 1219.5Z" stroke="#0058FF" stroke-width="31.1335" stroke-linecap="round" stroke-linejoin="round"/>
<rect width="373.603" height="373.603" transform="matrix(0 -1 1 0 1333.27 862.898)" fill="#387DFF"/>
<path d="M1418.89 777.28L1465.59 730.58M1418.89 574.912L1465.59 621.613M1395.54 691.663C1399.67 691.663 1403.63 690.023 1406.55 687.104C1409.47 684.184 1411.11 680.225 1411.11 676.096C1411.11 671.968 1409.47 668.008 1406.55 665.089C1403.63 662.17 1399.67 660.529 1395.54 660.529C1391.41 660.529 1387.45 662.17 1384.53 665.089C1381.61 668.008 1379.97 671.968 1379.97 676.096C1379.97 680.225 1381.61 684.184 1384.53 687.104C1387.45 690.023 1391.41 691.663 1395.54 691.663Z" stroke="#0058FF" stroke-width="31.1335" stroke-linecap="round" stroke-linejoin="round"/>
<rect width="373.603" height="373.603" transform="matrix(0 -1 1 0 1352.35 1656.33)" fill="#387DFF"/>
<path d="M1437.98 1570.71L1484.68 1524.01M1437.98 1368.34L1484.68 1415.04M1414.63 1485.09C1418.75 1485.09 1422.71 1483.45 1425.63 1480.53C1428.55 1477.61 1430.19 1473.65 1430.19 1469.53C1430.19 1465.4 1428.55 1461.44 1425.63 1458.52C1422.71 1455.6 1418.75 1453.96 1414.63 1453.96C1410.5 1453.96 1406.54 1455.6 1403.62 1458.52C1400.7 1461.44 1399.06 1465.4 1399.06 1469.53C1399.06 1473.65 1400.7 1477.61 1403.62 1480.53C1406.54 1483.45 1410.5 1485.09 1414.63 1485.09Z" stroke="#0058FF" stroke-width="31.1335" stroke-linecap="round" stroke-linejoin="round"/>
<rect width="373.603" height="373.603" transform="matrix(0 -1 1 0 1502.36 335.714)" fill="#387DFF"/>
<path d="M1587.98 250.097L1634.68 203.396M1587.98 47.7286L1634.68 94.4289M1564.63 164.479C1568.76 164.479 1572.72 162.839 1575.64 159.92C1578.56 157.001 1580.2 153.041 1580.2 148.913C1580.2 144.784 1578.56 140.825 1575.64 137.905C1572.72 134.986 1568.76 133.346 1564.63 133.346C1560.5 133.346 1556.54 134.986 1553.62 137.905C1550.7 140.825 1549.06 144.784 1549.06 148.913C1549.06 153.041 1550.7 157.001 1553.62 159.92C1556.54 162.839 1560.5 164.479 1564.63 164.479Z" stroke="#0058FF" stroke-width="31.1335" stroke-linecap="round" stroke-linejoin="round"/>
<rect width="373.603" height="373.603" transform="matrix(0 -1 1 0 1502.36 1129.14)" fill="#387DFF"/>
<path d="M1587.98 1043.53L1634.68 996.825M1587.98 841.157L1634.68 887.858M1564.63 957.908C1568.76 957.908 1572.72 956.268 1575.64 953.349C1578.56 950.429 1580.2 946.47 1580.2 942.341C1580.2 938.213 1578.56 934.253 1575.64 931.334C1572.72 928.415 1568.76 926.775 1564.63 926.775C1560.5 926.775 1556.54 928.415 1553.62 931.334C1550.7 934.253 1549.06 938.213 1549.06 942.341C1549.06 946.47 1550.7 950.429 1553.62 953.349C1556.54 956.268 1560.5 957.908 1564.63 957.908Z" stroke="#0058FF" stroke-width="31.1335" stroke-linecap="round" stroke-linejoin="round"/>
<rect width="373.603" height="373.603" transform="matrix(0 -1 1 0 1502.29 597.231)" fill="#387DFF"/>
<path d="M1587.91 511.612L1634.61 464.912M1587.91 309.244L1634.61 355.945M1564.56 425.995C1568.69 425.995 1572.65 424.355 1575.57 421.436C1578.49 418.516 1580.13 414.557 1580.13 410.428C1580.13 406.3 1578.49 402.34 1575.57 399.421C1572.65 396.502 1568.69 394.861 1564.56 394.861C1560.43 394.861 1556.47 396.502 1553.55 399.421C1550.63 402.34 1548.99 406.3 1548.99 410.428C1548.99 414.557 1550.63 418.516 1553.55 421.436C1556.47 424.355 1560.43 425.995 1564.56 425.995Z" stroke="#0058FF" stroke-width="31.1335" stroke-linecap="round" stroke-linejoin="round"/>
<rect width="373.603" height="373.603" transform="matrix(0 -1 1 0 1502.29 1390.66)" fill="#387DFF"/>
<path d="M1587.91 1305.04L1634.61 1258.34M1587.91 1102.67L1634.61 1149.37M1564.56 1219.42C1568.69 1219.42 1572.65 1217.78 1575.57 1214.87C1578.49 1211.95 1580.13 1207.99 1580.13 1203.86C1580.13 1199.73 1578.49 1195.77 1575.57 1192.85C1572.65 1189.93 1568.69 1188.29 1564.56 1188.29C1560.43 1188.29 1556.47 1189.93 1553.55 1192.85C1550.63 1195.77 1548.99 1199.73 1548.99 1203.86C1548.99 1207.99 1550.63 1211.95 1553.55 1214.87C1556.47 1217.78 1560.43 1219.42 1564.56 1219.42Z" stroke="#0058FF" stroke-width="31.1335" stroke-linecap="round" stroke-linejoin="round"/>
<rect width="373.603" height="373.603" transform="matrix(0 -1 1 0 1502.29 862.826)" fill="#387DFF"/>
<path d="M1587.91 777.21L1634.61 730.51M1587.91 574.842L1634.61 621.542M1564.56 691.593C1568.69 691.593 1572.65 689.953 1575.57 687.033C1578.49 684.114 1580.13 680.154 1580.13 676.026C1580.13 671.897 1578.49 667.938 1575.57 665.019C1572.65 662.099 1568.69 660.459 1564.56 660.459C1560.43 660.459 1556.47 662.099 1553.55 665.019C1550.63 667.938 1548.99 671.897 1548.99 676.026C1548.99 680.154 1550.63 684.114 1553.55 687.033C1556.47 689.953 1560.43 691.593 1564.56 691.593Z" stroke="#0058FF" stroke-width="31.1335" stroke-linecap="round" stroke-linejoin="round"/>
<rect width="373.603" height="373.603" transform="matrix(0 -1 1 0 1521.38 1656.26)" fill="#387DFF"/>
<path d="M1607 1570.64L1653.7 1523.94M1607 1368.27L1653.7 1414.97M1583.64 1485.02C1587.77 1485.02 1591.73 1483.38 1594.65 1480.46C1597.57 1477.54 1599.21 1473.58 1599.21 1469.46C1599.21 1465.33 1597.57 1461.37 1594.65 1458.45C1591.73 1455.53 1587.77 1453.89 1583.64 1453.89C1579.52 1453.89 1575.56 1455.53 1572.64 1458.45C1569.72 1461.37 1568.08 1465.33 1568.08 1469.46C1568.08 1473.58 1569.72 1477.54 1572.64 1480.46C1575.56 1483.38 1579.52 1485.02 1583.64 1485.02Z" stroke="#0058FF" stroke-width="31.1335" stroke-linecap="round" stroke-linejoin="round"/>
<rect width="373.603" height="373.603" transform="matrix(0 -1 1 0 1671.39 335.641)" fill="#387DFF"/>
<rect width="373.603" height="373.603" transform="matrix(0 -1 1 0 1671.39 1129.07)" fill="#387DFF"/>
<rect width="373.603" height="373.603" transform="matrix(0 -1 1 0 1671.31 597.163)" fill="#387DFF"/>
<rect width="373.603" height="373.603" transform="matrix(0 -1 1 0 1671.31 1390.59)" fill="#387DFF"/>
<rect width="373.603" height="373.603" transform="matrix(0 -1 1 0 1671.31 862.758)" fill="#387DFF"/>
<rect width="373.603" height="373.603" transform="matrix(0 -1 1 0 1690.4 1656.19)" fill="#387DFF"/>
</g>
<defs>
<clipPath id="clip0_671_9555">
<rect width="1690.47" height="1396" fill="white"/>
</clipPath>
</defs>
</svg>
