<svg width="21" height="22" viewBox="0 0 21 22" fill="none" xmlns="http://www.w3.org/2000/svg">
<g clip-path="url(#clip0_844_10457)">
<path d="M18.212 9.35407C18.212 15.2896 10.5806 20.3772 10.5806 20.3772C10.5806 20.3772 2.94922 15.2896 2.94922 9.35407C2.94922 7.33009 3.75324 5.38901 5.18441 3.95785C6.61558 2.52668 8.55666 1.72266 10.5806 1.72266C12.6046 1.72266 14.5457 2.52668 15.9769 3.95785C17.408 5.38901 18.212 7.33009 18.212 9.35407Z" stroke="#3B3B3B" stroke-width="1.4536" stroke-linecap="round" stroke-linejoin="round"/>
<path d="M10.5829 11.8982C11.9878 11.8982 13.1267 10.7593 13.1267 9.35435C13.1267 7.94945 11.9878 6.81055 10.5829 6.81055C9.17796 6.81055 8.03906 7.94945 8.03906 9.35435C8.03906 10.7593 9.17796 11.8982 10.5829 11.8982Z" stroke="#3B3B3B" stroke-width="1.4536" stroke-linecap="round" stroke-linejoin="round"/>
</g>
<defs>
<clipPath id="clip0_844_10457">
<rect width="20.3504" height="20.3504" fill="white" transform="translate(0.40625 0.875)"/>
</clipPath>
</defs>
</svg>
