<svg width="22" height="21" viewBox="0 0 22 21" fill="none" xmlns="http://www.w3.org/2000/svg">
<path d="M18.875 8.75C18.875 14.875 11 20.125 11 20.125C11 20.125 3.125 14.875 3.125 8.75C3.125 6.66142 3.95469 4.65838 5.43153 3.18153C6.90838 1.70469 8.91142 0.875 11 0.875C13.0886 0.875 15.0916 1.70469 16.5685 3.18153C18.0453 4.65838 18.875 6.66142 18.875 8.75Z" stroke="#868686" stroke-width="1.5" stroke-linecap="round" stroke-linejoin="round"/>
<path d="M11 11.375C12.4497 11.375 13.625 10.1997 13.625 8.75C13.625 7.30025 12.4497 6.125 11 6.125C9.55025 6.125 8.375 7.30025 8.375 8.75C8.375 10.1997 9.55025 11.375 11 11.375Z" stroke="#868686" stroke-width="1.5" stroke-linecap="round" stroke-linejoin="round"/>
</svg>
