<svg width="31" height="31" viewBox="0 0 31 31" fill="none" xmlns="http://www.w3.org/2000/svg">
<path d="M27.1724 25.9353L21.3886 20.1527C23.065 18.1402 23.9009 15.5588 23.7225 12.9456C23.5441 10.3323 22.3651 7.88852 20.4307 6.12245C18.4964 4.35639 15.9556 3.40406 13.337 3.46357C10.7184 3.52308 8.22354 4.58985 6.37142 6.44197C4.5193 8.29409 3.45252 10.789 3.39301 13.4076C3.3335 16.0262 4.28583 18.5669 6.0519 20.5013C7.81796 22.4356 10.2618 23.6147 12.875 23.7931C15.4882 23.9715 18.0696 23.1356 20.0822 21.4592L25.8648 27.243C25.9506 27.3288 26.0526 27.3969 26.1648 27.4434C26.2769 27.4899 26.3972 27.5138 26.5186 27.5138C26.64 27.5138 26.7602 27.4899 26.8724 27.4434C26.9846 27.3969 27.0865 27.3288 27.1724 27.243C27.2583 27.1571 27.3264 27.0552 27.3728 26.943C27.4193 26.8308 27.4432 26.7106 27.4432 26.5891C27.4432 26.4677 27.4193 26.3475 27.3728 26.2353C27.3264 26.1231 27.2583 26.0212 27.1724 25.9353ZM5.26413 13.6516C5.26413 12.0067 5.75191 10.3987 6.66579 9.03099C7.57967 7.66327 8.8786 6.59727 10.3983 5.96778C11.9181 5.33828 13.5903 5.17358 15.2037 5.49449C16.817 5.8154 18.2989 6.60752 19.4621 7.77067C20.6252 8.93381 21.4173 10.4158 21.7382 12.0291C22.0592 13.6424 21.8945 15.3147 21.265 16.8344C20.6355 18.3541 19.5695 19.6531 18.2017 20.567C16.834 21.4808 15.226 21.9686 13.5811 21.9686C11.376 21.9662 9.26201 21.0891 7.70281 19.5299C6.14361 17.9707 5.26657 15.8567 5.26413 13.6516Z" fill="#6E6E9B"/>
</svg>
