<svg width="32" height="32" viewBox="0 0 32 32" fill="none" xmlns="http://www.w3.org/2000/svg">
<g clip-path="url(#clip0_738_13861)">
<g clip-path="url(#clip1_738_13861)">
<path d="M7.4974 28.334H17.4141V31.1673H7.4974C5.9249 31.1673 4.66406 29.9065 4.66406 28.334V5.66732C4.66406 4.91587 4.96257 4.1952 5.49393 3.66385C6.02528 3.1325 6.74595 2.83398 7.4974 2.83398H24.4974C25.2488 2.83398 25.9695 3.1325 26.5009 3.66385C27.0322 4.1952 27.3307 4.91587 27.3307 5.66732V17.7657L25.2057 16.604L24.4974 17.0007V5.66732H17.4141V17.0007L13.8724 13.8132L10.3307 17.0007V5.66732H7.4974V28.334ZM32.9974 24.084L25.2057 19.834L17.4141 24.084L25.2057 28.334L32.9974 24.084ZM20.2474 27.0448V29.8782L25.2057 32.584L30.1641 29.8782V27.0448L25.2057 29.7507L20.2474 27.0448Z" fill="white"/>
</g>
</g>
<defs>
<clipPath id="clip0_738_13861">
<rect width="32" height="32" fill="white"/>
</clipPath>
<clipPath id="clip1_738_13861">
<rect width="32" height="32" fill="white" transform="translate(1 2)"/>
</clipPath>
</defs>
</svg>
