<svg width="32" height="32" viewBox="0 0 32 32" fill="none" xmlns="http://www.w3.org/2000/svg">
<g clip-path="url(#clip0_738_13874)">
<path d="M24.0984 4.40039C25.2409 4.40021 26.3407 4.83461 27.1747 5.61546C28.0087 6.39632 28.5145 7.46516 28.5894 8.60519L28.5984 8.90039V25.1004C28.5986 26.2429 28.1642 27.3427 27.3834 28.1767C26.6025 29.0107 25.5337 29.5164 24.3936 29.5914L24.0984 29.6004H7.89844C6.75594 29.6006 5.65616 29.1662 4.82216 28.3853C3.98815 27.6045 3.48239 26.5356 3.40744 25.3956L3.39844 25.1004V8.90039C3.39826 7.7579 3.83266 6.65811 4.61351 5.82411C5.39436 4.99011 6.46321 4.48434 7.60324 4.40939L7.89844 4.40039H24.0984ZM26.7984 11.6004H5.19844V25.1004C5.19847 25.7716 5.44849 26.4187 5.89975 26.9155C6.35101 27.4124 6.97115 27.7234 7.63924 27.7878L7.89844 27.8004H24.0984C24.7693 27.8004 25.4162 27.5506 25.913 27.0997C26.4098 26.6489 26.721 26.0292 26.7858 25.3614L26.7984 25.1004V11.6004ZM18.7272 13.8216C19.6872 13.8216 20.4492 14.0772 21.0132 14.5884C21.576 15.0996 21.8574 15.7908 21.8574 16.662C21.8574 17.1648 21.7284 17.6118 21.4704 18.003C21.2063 18.3983 20.8424 18.7168 20.4156 18.9264C20.9496 19.1748 21.3606 19.515 21.6486 19.947C21.9366 20.379 22.0806 20.8662 22.0806 21.4086C22.0806 22.3086 21.7764 23.0226 21.168 23.5506C20.5572 24.0786 19.746 24.3426 18.7344 24.3426C17.718 24.3426 16.9038 24.0774 16.2918 23.547C15.6798 23.0166 15.3738 22.3038 15.3738 21.4086C15.3738 20.8602 15.519 20.3682 15.8094 19.9326C16.0998 19.497 16.5078 19.1616 17.0334 18.9264C16.6106 18.7153 16.2506 18.3969 15.9894 18.003C15.7314 17.604 15.5979 17.1371 15.606 16.662C15.606 15.7908 15.8874 15.0996 16.4502 14.5884C17.013 14.0772 17.772 13.8216 18.7272 13.8216ZM13.2912 13.9278V24.2004H11.5902V15.9816L9.07924 16.8384V15.3984L13.0734 13.9278H13.2912ZM18.72 19.6302C18.2244 19.6302 17.8272 19.785 17.5284 20.0946C17.2308 20.4042 17.082 20.814 17.082 21.324C17.082 21.8268 17.229 22.2276 17.523 22.5264C17.8158 22.8264 18.2196 22.9764 18.7344 22.9764C19.2492 22.9764 19.6512 22.8312 19.9404 22.5408C20.2296 22.2504 20.3736 21.8448 20.3724 21.324C20.3724 20.82 20.2212 20.4114 19.9188 20.0982C19.6164 19.7862 19.2168 19.6302 18.72 19.6302ZM18.7272 15.1932C18.2916 15.1932 17.9472 15.3306 17.694 15.6054C17.442 15.879 17.316 16.2528 17.316 16.7268C17.316 17.1948 17.4432 17.5668 17.6976 17.8428C17.9532 18.12 18.2988 18.2586 18.7344 18.2586C19.1712 18.2586 19.5174 18.1206 19.773 17.8446C20.0286 17.5686 20.1558 17.196 20.1546 16.7268C20.1711 16.3239 20.0334 15.93 19.7694 15.6252C19.6379 15.4813 19.4764 15.368 19.2963 15.2934C19.1163 15.2188 18.922 15.1845 18.7272 15.1932ZM24.0984 6.20039H7.89844C7.22725 6.20042 6.58013 6.45045 6.08328 6.9017C5.58643 7.35296 5.27547 7.9731 5.21104 8.64119L5.19844 8.90039V9.80039H26.7984V8.90039C26.7984 8.22948 26.5487 7.5826 26.0978 7.0858C25.6469 6.58899 25.0272 6.27785 24.3594 6.21299L24.0984 6.20039Z" fill="white"/>
</g>
<defs>
<clipPath id="clip0_738_13874">
<rect width="32" height="32" fill="white"/>
</clipPath>
</defs>
</svg>
