<svg width="32" height="32" viewBox="0 0 32 32" fill="none" xmlns="http://www.w3.org/2000/svg">
<g clip-path="url(#clip0_738_13867)">
<g clip-path="url(#clip1_738_13867)">
<g clip-path="url(#clip2_738_13867)">
<path d="M9.69844 9.80039C9.45974 9.80039 9.23082 9.89521 9.06204 10.064C8.89326 10.2328 8.79844 10.4617 8.79844 10.7004V16.1004C8.79844 16.3391 8.89326 16.568 9.06204 16.7368C9.23082 16.9056 9.45974 17.0004 9.69844 17.0004H22.2984C22.5371 17.0004 22.7661 16.9056 22.9348 16.7368C23.1036 16.568 23.1984 16.3391 23.1984 16.1004V10.7004C23.1984 10.4617 23.1036 10.2328 22.9348 10.064C22.7661 9.89521 22.5371 9.80039 22.2984 9.80039H9.69844ZM10.5984 15.2004V11.6004H21.3984V15.2004H10.5984ZM28.5984 8.90039C28.5984 7.70692 28.1243 6.56232 27.2804 5.71841C26.4365 4.8745 25.2919 4.40039 24.0984 4.40039H7.89844C6.70496 4.40039 5.56037 4.8745 4.71646 5.71841C3.87254 6.56232 3.39844 7.70692 3.39844 8.90039V25.1004C3.39844 26.2939 3.87254 27.4385 4.71646 28.2824C5.56037 29.1263 6.70496 29.6004 7.89844 29.6004H24.0984C25.2919 29.6004 26.4365 29.1263 27.2804 28.2824C28.1243 27.4385 28.5984 26.2939 28.5984 25.1004V8.90039ZM7.89844 6.20039H24.0984C24.8145 6.20039 25.5013 6.48485 26.0076 6.9912C26.514 7.49755 26.7984 8.18431 26.7984 8.90039V25.1004C26.7984 25.8165 26.514 26.5032 26.0076 27.0096C25.5013 27.5159 24.8145 27.8004 24.0984 27.8004H7.89844C7.18235 27.8004 6.4956 27.5159 5.98925 27.0096C5.4829 26.5032 5.19844 25.8165 5.19844 25.1004V8.90039C5.19844 8.18431 5.4829 7.49755 5.98925 6.9912C6.4956 6.48485 7.18235 6.20039 7.89844 6.20039Z" fill="white"/>
</g>
</g>
</g>
<defs>
<clipPath id="clip0_738_13867">
<rect width="32" height="32" fill="white"/>
</clipPath>
<clipPath id="clip1_738_13867">
<rect width="32" height="32" fill="white" transform="translate(1 2)"/>
</clipPath>
<clipPath id="clip2_738_13867">
<rect width="34" height="34" fill="white" transform="translate(-1)"/>
</clipPath>
</defs>
</svg>
