<svg width="54" height="54" viewBox="0 0 54 54" fill="none" xmlns="http://www.w3.org/2000/svg">
<rect width="54" height="54" rx="27" fill="url(#paint0_linear_738_13933)"/>
<g clip-path="url(#clip0_738_13933)">
<path d="M36 33V19C36.0017 18.6056 35.9252 18.2147 35.775 17.85C35.6248 17.4853 35.4039 17.1539 35.125 16.875C34.8461 16.5961 34.5147 16.3752 34.15 16.225C33.7853 16.0748 33.3944 15.9984 33 16H16" stroke="white" stroke-width="2" stroke-linecap="round" stroke-linejoin="round"/>
<path d="M24 24H32" stroke="white" stroke-width="2" stroke-linecap="round" stroke-linejoin="round"/>
<path d="M24 28H32" stroke="white" stroke-width="2" stroke-linecap="round" stroke-linejoin="round"/>
<path d="M13.7625 21.0004C13.4387 20.6378 13.2078 20.2019 13.0898 19.7304C12.9717 19.2588 12.9701 18.7656 13.0849 18.2932C13.1998 17.8208 13.4277 17.3834 13.7491 17.0187C14.0704 16.6539 14.4756 16.3728 14.9298 16.1993C15.3839 16.0259 15.8734 15.9655 16.3561 16.0232C16.8388 16.0809 17.3003 16.255 17.7007 16.5306C18.1012 16.8062 18.4287 17.175 18.655 17.6052C18.8813 18.0354 18.9997 18.5142 19 19.0004V35.0004C19.0003 35.4865 19.1187 35.9653 19.345 36.3955C19.5713 36.8257 19.8988 37.1945 20.2993 37.4701C20.6997 37.7457 21.1612 37.9198 21.6439 37.9775C22.1266 38.0352 22.6161 37.9748 23.0702 37.8014C23.5244 37.6279 23.9296 37.3468 24.2509 36.982C24.5723 36.6173 24.8002 36.1799 24.9151 35.7075C25.0299 35.2351 25.0283 34.7419 24.9102 34.2703C24.7922 33.7988 24.5613 33.3629 24.2375 33.0004H38.2375C38.6237 33.4321 38.8766 33.9664 38.9657 34.5388C39.0548 35.1111 38.9764 35.697 38.7398 36.2257C38.5031 36.7545 38.1185 37.2034 37.6324 37.5183C37.1462 37.8332 36.5792 38.0006 36 38.0004H22" stroke="white" stroke-width="2" stroke-linecap="round" stroke-linejoin="round"/>
</g>
<defs>
<linearGradient id="paint0_linear_738_13933" x1="63.5" y1="2.11155e-06" x2="8.5" y2="54" gradientUnits="userSpaceOnUse">
<stop stop-color="#EFB0FF"/>
<stop offset="1" stop-color="#C448FF"/>
</linearGradient>
<clipPath id="clip0_738_13933">
<rect width="32" height="32" fill="white" transform="translate(11 11)"/>
</clipPath>
</defs>
</svg>
