<svg width="54" height="54" viewBox="0 0 54 54" fill="none" xmlns="http://www.w3.org/2000/svg">
<rect width="54" height="54" rx="27" fill="url(#paint0_linear_738_13912)"/>
<path d="M36 25C36 32 27 38 27 38C27 38 18 32 18 25C18 22.6131 18.9482 20.3239 20.636 18.636C22.3239 16.9482 24.6131 16 27 16C29.3869 16 31.6761 16.9482 33.364 18.636C35.0518 20.3239 36 22.6131 36 25Z" stroke="white" stroke-width="2" stroke-linecap="round" stroke-linejoin="round"/>
<path d="M27 28C28.6569 28 30 26.6569 30 25C30 23.3431 28.6569 22 27 22C25.3431 22 24 23.3431 24 25C24 26.6569 25.3431 28 27 28Z" stroke="white" stroke-width="2" stroke-linecap="round" stroke-linejoin="round"/>
<defs>
<linearGradient id="paint0_linear_738_13912" x1="63.5" y1="2.11155e-06" x2="8.5" y2="54" gradientUnits="userSpaceOnUse">
<stop stop-color="#74FF43"/>
<stop offset="1" stop-color="#71C00D"/>
</linearGradient>
</defs>
</svg>
