<svg width="32" height="32" viewBox="0 0 32 32" fill="none" xmlns="http://www.w3.org/2000/svg">
<path d="M16.2086 22.0403C18.8846 22.0403 21.054 19.871 21.054 17.195C21.054 14.5189 18.8846 12.3496 16.2086 12.3496C13.5326 12.3496 11.3633 14.5189 11.3633 17.195C11.3633 19.871 13.5326 22.0403 16.2086 22.0403Z" stroke="#0058FF" stroke-width="1.93814" stroke-linecap="round" stroke-linejoin="round"/>
<path d="M24.4453 14.2881C25.574 14.2862 26.6874 14.5481 27.697 15.0528C28.7065 15.5576 29.584 16.2912 30.2597 17.1953" stroke="#0058FF" stroke-width="1.93814" stroke-linecap="round" stroke-linejoin="round"/>
<path d="M2.15625 17.1953C2.83193 16.2912 3.70952 15.5576 4.71902 15.0528C5.72852 14.5481 6.84201 14.2862 7.97066 14.2881" stroke="#0058FF" stroke-width="1.93814" stroke-linecap="round" stroke-linejoin="round"/>
<path d="M9.23047 26.4007C9.86863 25.0938 10.861 23.9923 12.0946 23.2219C13.3282 22.4515 14.7534 22.043 16.2078 22.043C17.6622 22.043 19.0873 22.4515 20.3209 23.2219C21.5545 23.9923 22.5469 25.0938 23.1851 26.4007" stroke="#0058FF" stroke-width="1.93814" stroke-linecap="round" stroke-linejoin="round"/>
<path d="M7.97005 14.2877C7.23434 14.2884 6.5136 14.0798 5.89206 13.6862C5.27052 13.2925 4.77385 12.7301 4.46007 12.0646C4.14629 11.3992 4.02837 10.6582 4.12008 9.92822C4.2118 9.19824 4.50936 8.50944 4.978 7.9423C5.44664 7.37515 6.067 6.95309 6.7666 6.72542C7.46621 6.49775 8.21615 6.47389 8.92882 6.6566C9.64148 6.83932 10.2874 7.22108 10.7912 7.75728C11.2949 8.29348 11.6357 8.96196 11.7736 9.68463" stroke="#0058FF" stroke-width="1.93814" stroke-linecap="round" stroke-linejoin="round"/>
<path d="M20.6406 9.68463C20.7786 8.96196 21.1193 8.29348 21.6231 7.75728C22.1268 7.22108 22.7728 6.83932 23.4855 6.6566C24.1981 6.47389 24.9481 6.49775 25.6477 6.72542C26.3473 6.95309 26.9676 7.37515 27.4363 7.9423C27.9049 8.50944 28.2025 9.19824 28.2942 9.92822C28.3859 10.6582 28.268 11.3992 27.9542 12.0646C27.6404 12.7301 27.1437 13.2925 26.5222 13.6862C25.9007 14.0798 25.1799 14.2884 24.4442 14.2877" stroke="#0058FF" stroke-width="1.93814" stroke-linecap="round" stroke-linejoin="round"/>
</svg>
