<svg width="25" height="24" viewBox="0 0 25 24" fill="none" xmlns="http://www.w3.org/2000/svg">
<path fill-rule="evenodd" clip-rule="evenodd" d="M21.424 11.75H18.73C17.306 11.75 16.249 12.809 16.249 14C16.249 15.191 17.306 16.25 18.729 16.25H21.447C21.653 16.237 21.742 16.098 21.749 16.014V11.986C21.742 11.902 21.653 11.763 21.447 11.751L21.424 11.75ZM21.35 10.25C21.416 10.25 21.48 10.25 21.54 10.254C22.41 10.307 23.181 10.964 23.246 11.882C23.25 11.942 23.25 12.007 23.25 12.067V15.933C23.25 15.993 23.25 16.058 23.246 16.118C23.181 17.036 22.41 17.693 21.539 17.747C21.48 17.75 21.416 17.75 21.349 17.75H18.731C16.586 17.75 14.75 16.122 14.75 14C14.75 11.878 16.586 10.25 18.73 10.25H21.333H21.35Z" fill="#868686"/>
<path d="M19.5 14C19.5 14.2652 19.3946 14.5196 19.2071 14.7071C19.0196 14.8946 18.7652 15 18.5 15C18.2348 15 17.9804 14.8946 17.7929 14.7071C17.6054 14.5196 17.5 14.2652 17.5 14C17.5 13.7348 17.6054 13.4804 17.7929 13.2929C17.9804 13.1054 18.2348 13 18.5 13C18.7652 13 19.0196 13.1054 19.2071 13.2929C19.3946 13.4804 19.5 13.7348 19.5 14" fill="#868686"/>
<path fill-rule="evenodd" clip-rule="evenodd" d="M21.35 10.2501C21.6369 10.2393 21.9225 10.294 22.185 10.4101C22.078 8.80412 21.783 7.56612 20.859 6.64112C20.11 5.89312 19.161 5.56112 17.989 5.40312L17.947 5.39812C17.9365 5.39018 17.9259 5.38251 17.915 5.37512L14.179 2.89812C13.531 2.4752 12.7738 2.25 12 2.25C11.2262 2.25 10.469 2.4752 9.821 2.89812L6.086 5.37512C6.0748 5.3825 6.0638 5.39017 6.053 5.39812L6.011 5.40312C4.839 5.56112 3.89 5.89312 3.141 6.64112C2.393 7.39012 2.061 8.33912 1.903 9.51112C1.75 10.6511 1.75 12.1061 1.75 13.9441V14.0561C1.75 15.8941 1.75 17.3501 1.903 18.4891C2.061 19.6611 2.393 20.6101 3.141 21.3591C3.89 22.1071 4.839 22.4391 6.011 22.5971C7.151 22.7501 8.606 22.7501 10.444 22.7501H13.556C15.394 22.7501 16.85 22.7501 17.989 22.5971C19.161 22.4391 20.11 22.1071 20.859 21.3591C21.783 20.4341 22.078 19.1961 22.185 17.5891C21.983 17.6791 21.765 17.7331 21.539 17.7471C21.48 17.7501 21.416 17.7501 21.349 17.7501H20.668C20.554 19.0921 20.297 19.8001 19.798 20.2981C19.375 20.7211 18.795 20.9751 17.789 21.1101C16.762 21.2481 15.407 21.2501 13.5 21.2501H10.5C8.593 21.2501 7.239 21.2481 6.21 21.1101C5.205 20.9751 4.625 20.7211 4.202 20.2981C3.779 19.8751 3.525 19.2951 3.39 18.2891C3.252 17.2621 3.25 15.9071 3.25 14.0001C3.25 12.0931 3.252 10.7391 3.39 9.71012C3.525 8.70512 3.779 8.12512 4.202 7.70212C4.625 7.27912 5.205 7.02512 6.211 6.89012C7.239 6.75212 8.593 6.75012 10.5 6.75012H13.5C15.407 6.75012 16.762 6.75212 17.79 6.89012C18.795 7.02512 19.375 7.27912 19.798 7.70212C20.297 8.20012 20.554 8.90912 20.668 10.2501H21.333H21.35ZM10.444 5.25012H13.556C14.073 5.25012 14.559 5.25012 15.016 5.25312L13.35 4.14812C12.55 3.61812 11.45 3.61812 10.65 4.14812L8.983 5.25312C9.441 5.25012 9.927 5.25012 10.443 5.25012" fill="#868686"/>
<path d="M6.5 9.25C6.30109 9.25 6.11032 9.32902 5.96967 9.46967C5.82902 9.61032 5.75 9.80109 5.75 10C5.75 10.1989 5.82902 10.3897 5.96967 10.5303C6.11032 10.671 6.30109 10.75 6.5 10.75H10.5C10.6989 10.75 10.8897 10.671 11.0303 10.5303C11.171 10.3897 11.25 10.1989 11.25 10C11.25 9.80109 11.171 9.61032 11.0303 9.46967C10.8897 9.32902 10.6989 9.25 10.5 9.25H6.5Z" fill="#868686"/>
<path d="M19.5 14C19.5 14.2652 19.3946 14.5196 19.2071 14.7071C19.0196 14.8946 18.7652 15 18.5 15C18.2348 15 17.9804 14.8946 17.7929 14.7071C17.6054 14.5196 17.5 14.2652 17.5 14C17.5 13.7348 17.6054 13.4804 17.7929 13.2929C17.9804 13.1054 18.2348 13 18.5 13C18.7652 13 19.0196 13.1054 19.2071 13.2929C19.3946 13.4804 19.5 13.7348 19.5 14" fill="#868686"/>
</svg>
