<svg width="24" height="25" viewBox="0 0 24 25" fill="none" xmlns="http://www.w3.org/2000/svg">
<path fill-rule="evenodd" clip-rule="evenodd" d="M20.7177 12.3564H18.0783C16.6831 12.3564 15.6475 13.3939 15.6475 14.5608C15.6475 15.7277 16.6831 16.7653 18.0773 16.7653H20.7403C20.9421 16.7525 21.0293 16.6163 21.0362 16.534V12.5876C21.0293 12.5053 20.9421 12.3691 20.7403 12.3573L20.7177 12.3564ZM20.6452 10.8867C20.7099 10.8867 20.7726 10.8867 20.8314 10.8906C21.6838 10.9426 22.4392 11.5863 22.5028 12.4857C22.5068 12.5445 22.5068 12.6082 22.5068 12.6669V16.4547C22.5068 16.5135 22.5068 16.5771 22.5028 16.6359C22.4392 17.5353 21.6838 18.179 20.8304 18.232C20.7726 18.2349 20.7099 18.2349 20.6443 18.2349H18.0792C15.9777 18.2349 14.1788 16.6399 14.1788 14.5608C14.1788 12.4818 15.9777 10.8867 18.0783 10.8867H20.6286H20.6452Z" fill="#0058FF"/>
<path d="M18.8323 14.5618C18.8323 14.8216 18.7291 15.0708 18.5454 15.2546C18.3616 15.4383 18.1124 15.5415 17.8526 15.5415C17.5927 15.5415 17.3435 15.4383 17.1598 15.2546C16.976 15.0708 16.8728 14.8216 16.8728 14.5618C16.8728 14.3019 16.976 14.0527 17.1598 13.869C17.3435 13.6853 17.5927 13.582 17.8526 13.582C18.1124 13.582 18.3616 13.6853 18.5454 13.869C18.7291 14.0527 18.8323 14.3019 18.8323 14.5618" fill="#0058FF"/>
<path fill-rule="evenodd" clip-rule="evenodd" d="M20.6449 10.887C20.926 10.8764 21.2057 10.93 21.463 11.0438C21.3581 9.47027 21.0691 8.25733 20.1638 7.35106C19.43 6.6182 18.5002 6.29292 17.3519 6.13812L17.3108 6.13322C17.3005 6.12544 17.2901 6.11793 17.2794 6.11069L13.619 3.68383C12.9841 3.26946 12.2423 3.04883 11.4842 3.04883C10.726 3.04883 9.9842 3.26946 9.34927 3.68383L5.68988 6.11069C5.67891 6.11791 5.66812 6.12543 5.65754 6.13322L5.61639 6.13812C4.46812 6.29292 3.53833 6.6182 2.80449 7.35106C2.07163 8.0849 1.74635 9.01468 1.59155 10.163C1.44165 11.2799 1.44165 12.7054 1.44165 14.5062V14.616C1.44165 16.4167 1.44165 17.8433 1.59155 18.9592C1.74635 20.1075 2.07163 21.0373 2.80449 21.7711C3.53833 22.504 4.46812 22.8293 5.61639 22.9841C6.73332 23.134 8.15886 23.134 9.95966 23.134H13.0087C14.8095 23.134 16.236 23.134 17.3519 22.9841C18.5002 22.8293 19.43 22.504 20.1638 21.7711C21.0691 20.8648 21.3581 19.6519 21.463 18.0774C21.2651 18.1656 21.0515 18.2185 20.8301 18.2322C20.7723 18.2352 20.7096 18.2352 20.6439 18.2352H19.9767C19.865 19.55 19.6132 20.2437 19.1243 20.7316C18.7099 21.146 18.1416 21.3949 17.156 21.5272C16.1498 21.6624 14.8222 21.6643 12.9538 21.6643H10.0145C8.14613 21.6643 6.81954 21.6624 5.81137 21.5272C4.82671 21.3949 4.25845 21.146 3.84401 20.7316C3.42958 20.3172 3.18072 19.7489 3.04845 18.7633C2.91325 17.7571 2.91129 16.4295 2.91129 14.5611C2.91129 12.6927 2.91325 11.3661 3.04845 10.3579C3.18072 9.37328 3.42958 8.80502 3.84401 8.39058C4.25845 7.97614 4.82671 7.72728 5.81235 7.59502C6.81954 7.45981 8.14613 7.45785 10.0145 7.45785H12.9538C14.8222 7.45785 16.1498 7.45981 17.157 7.59502C18.1416 7.72728 18.7099 7.97614 19.1243 8.39058C19.6132 8.8785 19.865 9.57315 19.9767 10.887H20.6282H20.6449ZM9.95966 5.98822H13.0087C13.5152 5.98822 13.9914 5.98822 14.4391 5.99115L12.8068 4.90852C12.023 4.38925 10.9453 4.38925 10.1615 4.90852L8.52823 5.99115C8.97696 5.98822 9.45312 5.98822 9.95868 5.98822" fill="#0058FF"/>
<path d="M6.09578 9.90723C5.90089 9.90723 5.71399 9.98465 5.57618 10.1225C5.43838 10.2603 5.36096 10.4472 5.36096 10.642C5.36096 10.8369 5.43838 11.0238 5.57618 11.1616C5.71399 11.2994 5.90089 11.3769 6.09578 11.3769H10.0148C10.2097 11.3769 10.3966 11.2994 10.5344 11.1616C10.6722 11.0238 10.7496 10.8369 10.7496 10.642C10.7496 10.4472 10.6722 10.2603 10.5344 10.1225C10.3966 9.98465 10.2097 9.90723 10.0148 9.90723H6.09578Z" fill="#0058FF"/>
<path d="M18.8323 14.5618C18.8323 14.8216 18.7291 15.0708 18.5454 15.2546C18.3616 15.4383 18.1124 15.5415 17.8526 15.5415C17.5927 15.5415 17.3435 15.4383 17.1598 15.2546C16.976 15.0708 16.8728 14.8216 16.8728 14.5618C16.8728 14.3019 16.976 14.0527 17.1598 13.869C17.3435 13.6853 17.5927 13.582 17.8526 13.582C18.1124 13.582 18.3616 13.6853 18.5454 13.869C18.7291 14.0527 18.8323 14.3019 18.8323 14.5618" fill="#0058FF"/>
</svg>
