<svg width="25" height="25" viewBox="0 0 25 25" fill="none" xmlns="http://www.w3.org/2000/svg">
<path fill-rule="evenodd" clip-rule="evenodd" d="M21.1902 11.9712H18.4707C17.0333 11.9712 15.9663 13.0402 15.9663 14.2425C15.9663 15.4447 17.0333 16.5137 18.4697 16.5137H21.2134C21.4213 16.5006 21.5112 16.3603 21.5182 16.2755V12.2094C21.5112 12.1246 21.4213 11.9843 21.2134 11.9722L21.1902 11.9712ZM21.1155 10.457C21.1821 10.457 21.2467 10.457 21.3073 10.4611C22.1855 10.5146 22.9638 11.1778 23.0294 12.1044C23.0334 12.165 23.0334 12.2306 23.0334 12.2912V16.1937C23.0334 16.2543 23.0334 16.3199 23.0294 16.3805C22.9638 17.3071 22.1855 17.9703 21.3063 18.0249C21.2467 18.0279 21.1821 18.0279 21.1145 18.0279H18.4717C16.3065 18.0279 14.4531 16.3845 14.4531 14.2425C14.4531 12.1004 16.3065 10.457 18.4707 10.457H21.0983H21.1155Z" fill="#0058FF"/>
<path d="M19.2494 14.2438C19.2494 14.5115 19.143 14.7683 18.9537 14.9576C18.7644 15.1469 18.5076 15.2533 18.2399 15.2533C17.9722 15.2533 17.7154 15.1469 17.5261 14.9576C17.3368 14.7683 17.2305 14.5115 17.2305 14.2438C17.2305 13.9761 17.3368 13.7193 17.5261 13.53C17.7154 13.3407 17.9722 13.2344 18.2399 13.2344C18.5076 13.2344 18.7644 13.3407 18.9537 13.53C19.143 13.7193 19.2494 13.9761 19.2494 14.2438" fill="#0058FF"/>
<path fill-rule="evenodd" clip-rule="evenodd" d="M21.1172 10.4595C21.4068 10.4485 21.695 10.5038 21.9601 10.621C21.8521 8.99982 21.5543 7.75013 20.6215 6.81639C19.8655 6.06132 18.9075 5.72619 17.7244 5.56669L17.682 5.56165C17.6715 5.55364 17.6607 5.54589 17.6497 5.53843L13.8784 3.03803C13.2243 2.61111 12.46 2.38379 11.6789 2.38379C10.8977 2.38379 10.1334 2.61111 9.47927 3.03803L5.70899 5.53843C5.69769 5.54588 5.68658 5.55362 5.67568 5.56165L5.63328 5.56669C4.45021 5.72619 3.49225 6.06132 2.73617 6.81639C1.98111 7.57246 1.64597 8.53043 1.48648 9.7135C1.33203 10.8643 1.33203 12.333 1.33203 14.1884V14.3014C1.33203 16.1568 1.33203 17.6266 1.48648 18.7763C1.64597 19.9594 1.98111 20.9173 2.73617 21.6734C3.49225 22.4285 4.45021 22.7636 5.63328 22.9231C6.78405 23.0776 8.2528 23.0776 10.1082 23.0776H13.2496C15.1049 23.0776 16.5747 23.0776 17.7244 22.9231C18.9075 22.7636 19.8655 22.4285 20.6215 21.6734C21.5543 20.7397 21.8521 19.49 21.9601 17.8678C21.7562 17.9587 21.5361 18.0132 21.308 18.0273C21.2484 18.0303 21.1838 18.0303 21.1162 18.0303H20.4287C20.3137 19.385 20.0542 20.0997 19.5505 20.6024C19.1235 21.0294 18.538 21.2858 17.5225 21.4221C16.4858 21.5614 15.118 21.5634 13.193 21.5634H10.1647C8.23967 21.5634 6.87288 21.5614 5.83416 21.4221C4.81967 21.2858 4.23419 21.0294 3.80719 20.6024C3.3802 20.1754 3.1238 19.5899 2.98752 18.5744C2.84822 17.5377 2.8462 16.1699 2.8462 14.2449C2.8462 12.3199 2.84822 10.9531 2.98752 9.91438C3.1238 8.89989 3.3802 8.31441 3.80719 7.88741C4.23419 7.46042 4.81967 7.20402 5.83517 7.06774C6.87288 6.92844 8.23967 6.92642 10.1647 6.92642H13.193C15.118 6.92642 16.4858 6.92844 17.5236 7.06774C18.538 7.20402 19.1235 7.46042 19.5505 7.88741C20.0542 8.39012 20.3137 9.10581 20.4287 10.4595H21.1H21.1172ZM10.1082 5.41225H13.2496C13.7714 5.41225 14.262 5.41225 14.7233 5.41528L13.0416 4.29984C12.2341 3.76483 11.1237 3.76483 10.3161 4.29984L8.63336 5.41528C9.09568 5.41225 9.58628 5.41225 10.1071 5.41225" fill="#0058FF"/>
<path d="M6.12818 9.44922C5.92739 9.44922 5.73482 9.52898 5.59284 9.67096C5.45086 9.81295 5.37109 10.0055 5.37109 10.2063C5.37109 10.4071 5.45086 10.5997 5.59284 10.7416C5.73482 10.8836 5.92739 10.9634 6.12818 10.9634H10.166C10.3668 10.9634 10.5593 10.8836 10.7013 10.7416C10.8433 10.5997 10.9231 10.4071 10.9231 10.2063C10.9231 10.0055 10.8433 9.81295 10.7013 9.67096C10.5593 9.52898 10.3668 9.44922 10.166 9.44922H6.12818Z" fill="#0058FF"/>
<path d="M19.2494 14.2438C19.2494 14.5115 19.143 14.7683 18.9537 14.9576C18.7644 15.1469 18.5076 15.2533 18.2399 15.2533C17.9722 15.2533 17.7154 15.1469 17.5261 14.9576C17.3368 14.7683 17.2305 14.5115 17.2305 14.2438C17.2305 13.9761 17.3368 13.7193 17.5261 13.53C17.7154 13.3407 17.9722 13.2344 18.2399 13.2344C18.5076 13.2344 18.7644 13.3407 18.9537 13.53C19.143 13.7193 19.2494 13.9761 19.2494 14.2438" fill="#0058FF"/>
</svg>
