<svg width="25" height="25" viewBox="0 0 25 25" fill="none" xmlns="http://www.w3.org/2000/svg">
<path fill-rule="evenodd" clip-rule="evenodd" d="M21.7995 11.9995H19.0801C17.6426 11.9995 16.5757 13.0685 16.5757 14.2708C16.5757 15.473 17.6426 16.542 19.0791 16.542H21.8228C22.0307 16.5289 22.1206 16.3886 22.1276 16.3038V12.2378C22.1206 12.153 22.0307 12.0126 21.8228 12.0005L21.7995 11.9995ZM21.7248 10.4854C21.7915 10.4854 21.8561 10.4854 21.9166 10.4894C22.7949 10.5429 23.5731 11.2061 23.6388 12.1328C23.6428 12.1933 23.6428 12.2589 23.6428 12.3195V16.222C23.6428 16.2826 23.6428 16.3482 23.6388 16.4088C23.5731 17.3355 22.7949 17.9987 21.9156 18.0532C21.8561 18.0562 21.7915 18.0562 21.7238 18.0562H19.0811C16.9158 18.0562 15.0625 16.4128 15.0625 14.2708C15.0625 12.1287 16.9158 10.4854 19.0801 10.4854H21.7077H21.7248Z" fill="#0058FF"/>
<path d="M19.8587 14.2721C19.8587 14.5399 19.7524 14.7966 19.5631 14.9859C19.3738 15.1752 19.117 15.2816 18.8493 15.2816C18.5816 15.2816 18.3248 15.1752 18.1355 14.9859C17.9462 14.7966 17.8398 14.5399 17.8398 14.2721C17.8398 14.0044 17.9462 13.7477 18.1355 13.5584C18.3248 13.369 18.5816 13.2627 18.8493 13.2627C19.117 13.2627 19.3738 13.369 19.5631 13.5584C19.7524 13.7477 19.8587 14.0044 19.8587 14.2721" fill="#0058FF"/>
<path fill-rule="evenodd" clip-rule="evenodd" d="M21.7266 10.4878C22.0161 10.4769 22.3044 10.5321 22.5694 10.6493C22.4614 9.02814 22.1636 7.77845 21.2309 6.84471C20.4748 6.08964 19.5169 5.75451 18.3338 5.59501L18.2914 5.58997C18.2808 5.58196 18.2701 5.57422 18.2591 5.56675L14.4878 3.06635C13.8336 2.63943 13.0694 2.41211 12.2882 2.41211C11.5071 2.41211 10.7428 2.63943 10.0886 3.06635L6.31837 5.56675C6.30706 5.5742 6.29596 5.58194 6.28505 5.58997L6.24266 5.59501C5.05959 5.75451 4.10162 6.08964 3.34555 6.84471C2.59048 7.60078 2.25534 8.55875 2.09585 9.74182C1.94141 10.8926 1.94141 12.3613 1.94141 14.2167V14.3298C1.94141 16.1851 1.94141 17.6549 2.09585 18.8046C2.25534 19.9877 2.59048 20.9457 3.34555 21.7017C4.10162 22.4568 5.05959 22.7919 6.24266 22.9514C7.39343 23.1059 8.86217 23.1059 10.7175 23.1059H13.8589C15.7143 23.1059 17.184 23.1059 18.3338 22.9514C19.5169 22.7919 20.4748 22.4568 21.2309 21.7017C22.1636 20.768 22.4614 19.5183 22.5694 17.8961C22.3655 17.987 22.1455 18.0415 21.9173 18.0556C21.8578 18.0587 21.7932 18.0587 21.7255 18.0587H21.0381C20.923 19.4133 20.6636 20.128 20.1599 20.6307C19.7329 21.0577 19.1474 21.3141 18.1319 21.4504C17.0952 21.5897 15.7274 21.5917 13.8024 21.5917H10.7741C8.84905 21.5917 7.48226 21.5897 6.44354 21.4504C5.42904 21.3141 4.84356 21.0577 4.41657 20.6307C3.98957 20.2037 3.73317 19.6182 3.5969 18.6027C3.4576 17.566 3.45558 16.1982 3.45558 14.2732C3.45558 12.3482 3.4576 10.9814 3.5969 9.9427C3.73317 8.92821 3.98957 8.34273 4.41657 7.91573C4.84356 7.48874 5.42904 7.23234 6.44455 7.09606C7.48226 6.95676 8.84905 6.95474 10.7741 6.95474H13.8024C15.7274 6.95474 17.0952 6.95676 18.1329 7.09606C19.1474 7.23234 19.7329 7.48874 20.1599 7.91573C20.6636 8.41844 20.923 9.13413 21.0381 10.4878H21.7094H21.7266ZM10.7175 5.44057H13.8589C14.3808 5.44057 14.8714 5.44057 15.3327 5.4436L13.651 4.32816C12.8434 3.79315 11.733 3.79315 10.9255 4.32816L9.24273 5.4436C9.70506 5.44057 10.1957 5.44057 10.7165 5.44057" fill="#0058FF"/>
<path d="M6.73755 9.47754C6.53676 9.47754 6.34419 9.5573 6.20221 9.69928C6.06023 9.84127 5.98047 10.0338 5.98047 10.2346C5.98047 10.4354 6.06023 10.628 6.20221 10.77C6.34419 10.9119 6.53676 10.9917 6.73755 10.9917H10.7753C10.9761 10.9917 11.1687 10.9119 11.3107 10.77C11.4527 10.628 11.5324 10.4354 11.5324 10.2346C11.5324 10.0338 11.4527 9.84127 11.3107 9.69928C11.1687 9.5573 10.9761 9.47754 10.7753 9.47754H6.73755Z" fill="#0058FF"/>
<path d="M19.8587 14.2721C19.8587 14.5399 19.7524 14.7966 19.5631 14.9859C19.3738 15.1752 19.117 15.2816 18.8493 15.2816C18.5816 15.2816 18.3248 15.1752 18.1355 14.9859C17.9462 14.7966 17.8398 14.5399 17.8398 14.2721C17.8398 14.0044 17.9462 13.7477 18.1355 13.5584C18.3248 13.369 18.5816 13.2627 18.8493 13.2627C19.117 13.2627 19.3738 13.369 19.5631 13.5584C19.7524 13.7477 19.8587 14.0044 19.8587 14.2721" fill="#0058FF"/>
</svg>
