<svg width="25" height="25" viewBox="0 0 25 25" fill="none" xmlns="http://www.w3.org/2000/svg">
<path fill-rule="evenodd" clip-rule="evenodd" d="M21.7958 12.2393H18.9896C17.5062 12.2393 16.4052 13.3424 16.4052 14.583C16.4052 15.8236 17.5063 16.9268 18.9885 16.9268H21.8198C22.0344 16.9132 22.1271 16.7684 22.1344 16.6809V12.4851C22.1271 12.3976 22.0344 12.2528 21.8198 12.2403L21.7958 12.2393ZM21.7188 10.6768C21.7875 10.6768 21.8542 10.6768 21.9167 10.6809C22.8229 10.7361 23.626 11.4205 23.6938 12.3768C23.6979 12.4393 23.6979 12.507 23.6979 12.5695V16.5965C23.6979 16.659 23.6979 16.7268 23.6938 16.7893C23.626 17.7455 22.8229 18.4299 21.9156 18.4861C21.8542 18.4893 21.7875 18.4893 21.7177 18.4893H18.9906C16.7563 18.4893 14.8438 16.7934 14.8438 14.583C14.8438 12.3726 16.7562 10.6768 18.9896 10.6768H21.701H21.7188Z" fill="#0058FF"/>
<path d="M19.7918 14.5837C19.7918 14.8599 19.6821 15.1249 19.4867 15.3202C19.2914 15.5156 19.0264 15.6253 18.7502 15.6253C18.4739 15.6253 18.2089 15.5156 18.0136 15.3202C17.8182 15.1249 17.7085 14.8599 17.7085 14.5837C17.7085 14.3074 17.8182 14.0424 18.0136 13.8471C18.2089 13.6517 18.4739 13.542 18.7502 13.542C19.0264 13.542 19.2914 13.6517 19.4867 13.8471C19.6821 14.0424 19.7918 14.3074 19.7918 14.5837" fill="#0058FF"/>
<path fill-rule="evenodd" clip-rule="evenodd" d="M21.7189 10.6772C22.0177 10.6659 22.3152 10.7229 22.5887 10.8439C22.4772 9.17096 22.17 7.88137 21.2075 6.91783C20.4272 6.13866 19.4387 5.79283 18.2179 5.62825L18.1741 5.62304C18.1632 5.61477 18.1521 5.60679 18.1408 5.59908L14.2491 3.01887C13.5741 2.57833 12.7854 2.34375 11.9793 2.34375C11.1732 2.34375 10.3846 2.57833 9.70954 3.01887L5.81891 5.59908C5.80725 5.60677 5.79579 5.61476 5.78454 5.62304L5.74079 5.62825C4.51995 5.79283 3.53141 6.13866 2.7512 6.91783C1.97204 7.69804 1.6262 8.68658 1.46162 9.90741C1.30225 11.0949 1.30225 12.6105 1.30225 14.5251V14.6418C1.30225 16.5564 1.30225 18.073 1.46162 19.2595C1.6262 20.4803 1.97204 21.4689 2.7512 22.2491C3.53141 23.0282 4.51995 23.3741 5.74079 23.5387C6.92829 23.698 8.44391 23.698 10.3585 23.698H13.6002C15.5147 23.698 17.0314 23.698 18.2179 23.5387C19.4387 23.3741 20.4272 23.0282 21.2075 22.2491C22.17 21.2855 22.4772 19.996 22.5887 18.322C22.3783 18.4157 22.1512 18.472 21.9158 18.4866C21.8543 18.4897 21.7877 18.4897 21.7179 18.4897H21.0085C20.8897 19.8876 20.622 20.6251 20.1022 21.1439C19.6616 21.5845 19.0575 21.8491 18.0095 21.9897C16.9397 22.1335 15.5283 22.1355 13.5418 22.1355H10.4168C8.43037 22.1355 7.01995 22.1335 5.94808 21.9897C4.9012 21.8491 4.29704 21.5845 3.85641 21.1439C3.41579 20.7032 3.1512 20.0991 3.01058 19.0512C2.86683 17.9814 2.86475 16.5699 2.86475 14.5835C2.86475 12.597 2.86683 11.1866 3.01058 10.1147C3.1512 9.06783 3.41579 8.46367 3.85641 8.02304C4.29704 7.58242 4.9012 7.31783 5.94912 7.17721C7.01995 7.03346 8.43037 7.03137 10.4168 7.03137H13.5418C15.5283 7.03137 16.9397 7.03346 18.0106 7.17721C19.0575 7.31783 19.6616 7.58242 20.1022 8.02304C20.622 8.54179 20.8897 9.28033 21.0085 10.6772H21.7012H21.7189ZM10.3585 5.46887H13.6002C14.1387 5.46887 14.645 5.46887 15.121 5.472L13.3856 4.32096C12.5522 3.76887 11.4064 3.76887 10.5731 4.32096L8.83662 5.472C9.3137 5.46887 9.81995 5.46887 10.3575 5.46887" fill="#0058FF"/>
<path d="M6.25 9.63574C6.0428 9.63574 5.84409 9.71805 5.69757 9.86457C5.55106 10.0111 5.46875 10.2098 5.46875 10.417C5.46875 10.6242 5.55106 10.8229 5.69757 10.9694C5.84409 11.1159 6.0428 11.1982 6.25 11.1982H10.4167C10.6239 11.1982 10.8226 11.1159 10.9691 10.9694C11.1156 10.8229 11.1979 10.6242 11.1979 10.417C11.1979 10.2098 11.1156 10.0111 10.9691 9.86457C10.8226 9.71805 10.6239 9.63574 10.4167 9.63574H6.25Z" fill="#0058FF"/>
<path d="M19.7918 14.5837C19.7918 14.8599 19.6821 15.1249 19.4867 15.3202C19.2914 15.5156 19.0264 15.6253 18.7502 15.6253C18.4739 15.6253 18.2089 15.5156 18.0136 15.3202C17.8182 15.1249 17.7085 14.8599 17.7085 14.5837C17.7085 14.3074 17.8182 14.0424 18.0136 13.8471C18.2089 13.6517 18.4739 13.542 18.7502 13.542C19.0264 13.542 19.2914 13.6517 19.4867 13.8471C19.6821 14.0424 19.7918 14.3074 19.7918 14.5837" fill="#0058FF"/>
</svg>
