<svg width="24" height="21" viewBox="0 0 24 21" fill="none" xmlns="http://www.w3.org/2000/svg">
<path d="M8.89621 3.35671C8.89621 2.46724 9.24956 1.61419 9.87852 0.985231C10.5075 0.356274 11.3605 0.00292969 12.25 0.00292969C13.1395 0.00292969 13.9925 0.356274 14.6215 0.985231C15.2504 1.61419 15.6038 2.46724 15.6038 3.35671C15.6038 4.24619 15.2504 5.09924 14.6215 5.7282C13.9925 6.35716 13.1395 6.7105 12.25 6.7105C11.3605 6.7105 10.5075 6.35716 9.87852 5.7282C9.24956 5.09924 8.89621 4.24619 8.89621 3.35671ZM12.25 1.6815C12.03 1.6815 11.8122 1.72483 11.6089 1.80902C11.4057 1.89321 11.221 2.0166 11.0654 2.17216C10.9099 2.32772 10.7865 2.51239 10.7023 2.71564C10.6181 2.91888 10.5748 3.13672 10.5748 3.35671C10.5748 3.57671 10.6181 3.79455 10.7023 3.99779C10.7865 4.20104 10.9099 4.38571 11.0654 4.54127C11.221 4.69683 11.4057 4.82022 11.6089 4.90441C11.8122 4.9886 12.03 5.03193 12.25 5.03193C12.6943 5.03193 13.1204 4.85543 13.4346 4.54127C13.7487 4.22711 13.9252 3.80101 13.9252 3.35671C13.9252 2.91242 13.7487 2.48632 13.4346 2.17216C13.1204 1.858 12.6943 1.6815 12.25 1.6815ZM17.2857 4.196C17.2857 3.86535 17.3508 3.53794 17.4774 3.23246C17.6039 2.92698 17.7894 2.64941 18.0232 2.41561C18.257 2.1818 18.5345 1.99634 18.84 1.8698C19.1455 1.74327 19.4729 1.67814 19.8036 1.67814C20.1342 1.67814 20.4616 1.74327 20.7671 1.8698C21.0726 1.99634 21.3502 2.1818 21.584 2.41561C21.8178 2.64941 22.0032 2.92698 22.1298 3.23246C22.2563 3.53794 22.3214 3.86535 22.3214 4.196C22.3214 4.86378 22.0562 5.50421 21.584 5.97639C21.1118 6.44858 20.4713 6.71386 19.8036 6.71386C19.1358 6.71386 18.4954 6.44858 18.0232 5.97639C17.551 5.50421 17.2857 4.86378 17.2857 4.196ZM19.8036 3.35671C19.581 3.35671 19.3675 3.44514 19.2101 3.60254C19.0527 3.75993 18.9643 3.97341 18.9643 4.196C18.9643 4.41859 19.0527 4.63207 19.2101 4.78946C19.3675 4.94686 19.581 5.03529 19.8036 5.03529C20.0262 5.03529 20.2396 4.94686 20.397 4.78946C20.5544 4.63207 20.6429 4.41859 20.6429 4.196C20.6429 3.97341 20.5544 3.75993 20.397 3.60254C20.2396 3.44514 20.0262 3.35671 19.8036 3.35671ZM4.69643 1.67814C4.02865 1.67814 3.38822 1.94342 2.91603 2.41561C2.44385 2.8878 2.17857 3.52822 2.17857 4.196C2.17857 4.86378 2.44385 5.50421 2.91603 5.97639C3.38822 6.44858 4.02865 6.71386 4.69643 6.71386C5.36421 6.71386 6.00463 6.44858 6.47682 5.97639C6.94901 5.50421 7.21429 4.86378 7.21429 4.196C7.21429 3.52822 6.94901 2.8878 6.47682 2.41561C6.00463 1.94342 5.36421 1.67814 4.69643 1.67814ZM3.85714 4.196C3.85714 3.97341 3.94557 3.75993 4.10296 3.60254C4.26036 3.44514 4.47384 3.35671 4.69643 3.35671C4.91902 3.35671 5.1325 3.44514 5.28989 3.60254C5.44729 3.75993 5.53571 3.97341 5.53571 4.196C5.53571 4.41859 5.44729 4.63207 5.28989 4.78946C5.1325 4.94686 4.91902 5.03529 4.69643 5.03529C4.47384 5.03529 4.26036 4.94686 4.10296 4.78946C3.94557 4.63207 3.85714 4.41859 3.85714 4.196ZM5.98557 8.39243C5.69089 8.90277 5.53574 9.48169 5.53571 10.071H2.17857V14.2674C2.17844 14.685 2.28213 15.096 2.48032 15.4634C2.67852 15.8309 2.96498 16.1434 3.31394 16.3726C3.66289 16.6019 4.06338 16.7407 4.47935 16.7767C4.89532 16.8127 5.31371 16.7447 5.69686 16.5788C5.82107 17.1344 6.01579 17.6649 6.26757 18.16C5.63049 18.4173 4.94 18.5141 4.25674 18.4422C3.57347 18.3702 2.91833 18.1315 2.34885 17.7472C1.77937 17.3628 1.31297 16.8445 0.990601 16.2378C0.668237 15.6311 0.499772 14.9545 0.5 14.2674V10.071C0.5 9.62582 0.676849 9.19886 0.991642 8.88407C1.30644 8.56928 1.73339 8.39243 2.17857 8.39243H5.98557ZM18.2324 18.16C18.8695 18.4173 19.56 18.5141 20.2433 18.4422C20.9265 18.3702 21.5817 18.1315 22.1512 17.7472C22.7206 17.3628 23.187 16.8445 23.5094 16.2378C23.8318 15.6311 24.0002 14.9545 24 14.2674V10.071C24 9.62582 23.8232 9.19886 23.5084 8.88407C23.1936 8.56928 22.7666 8.39243 22.3214 8.39243H18.5144C18.7998 8.88593 18.9643 9.45832 18.9643 10.071H22.3214V14.2674C22.3216 14.685 22.2179 15.096 22.0197 15.4634C21.8215 15.8309 21.535 16.1434 21.1861 16.3726C20.8371 16.6019 20.4366 16.7407 20.0207 16.7767C19.6047 16.8127 19.1863 16.7447 18.8031 16.5788C18.6756 17.1361 18.4853 17.6632 18.2324 18.16ZM8.89286 8.39075C8.44767 8.39075 8.02072 8.5676 7.70593 8.88239C7.39114 9.19719 7.21429 9.62414 7.21429 10.0693V15.1067C7.21429 16.4423 7.74483 17.7231 8.68921 18.6675C9.63359 19.6119 10.9144 20.1424 12.25 20.1424C13.5856 20.1424 14.8664 19.6119 15.8108 18.6675C16.7552 17.7231 17.2857 16.4423 17.2857 15.1067V10.071C17.2857 9.62582 17.1089 9.19886 16.7941 8.88407C16.4793 8.56928 16.0523 8.39243 15.6071 8.39243L8.89286 8.39075ZM8.89286 10.0693H15.6071V15.1067C15.6071 15.9971 15.2534 16.851 14.6239 17.4806C13.9943 18.1102 13.1404 18.4639 12.25 18.4639C11.3596 18.4639 10.5057 18.1102 9.87614 17.4806C9.24656 16.851 8.89286 15.9971 8.89286 15.1067V10.0693Z" fill="black"/>
</svg>
