<svg width="19" height="19" viewBox="0 0 19 19" fill="none" xmlns="http://www.w3.org/2000/svg">
<g clip-path="url(#clip0_671_9285)">
<path d="M12.8958 15.9306V14.4134C12.8958 13.6086 12.5761 12.8368 12.007 12.2677C11.4379 11.6986 10.6661 11.3789 9.86127 11.3789H3.7923C2.9875 11.3789 2.21567 11.6986 1.64659 12.2677C1.07752 12.8368 0.757813 13.6086 0.757812 14.4134V15.9306" stroke="#0058FF" stroke-width="1.51724" stroke-linecap="round" stroke-linejoin="round"/>
<path d="M6.82746 8.34436C8.50336 8.34436 9.86194 6.98578 9.86194 5.30988C9.86194 3.63398 8.50336 2.27539 6.82746 2.27539C5.15155 2.27539 3.79297 3.63398 3.79297 5.30988C3.79297 6.98578 5.15155 8.34436 6.82746 8.34436Z" stroke="#0058FF" stroke-width="1.51724" stroke-linecap="round" stroke-linejoin="round"/>
<path d="M17.4477 15.9306V14.4134C17.4472 13.7411 17.2235 13.0879 16.8115 12.5565C16.3996 12.0252 15.8229 11.6456 15.1719 11.4775" stroke="#0058FF" stroke-width="1.51724" stroke-linecap="round" stroke-linejoin="round"/>
<path d="M12.1406 2.37402C12.7934 2.54115 13.3719 2.92076 13.785 3.45302C14.1982 3.98528 14.4224 4.6399 14.4224 5.31368C14.4224 5.98747 14.1982 6.64209 13.785 7.17435C13.3719 7.7066 12.7934 8.08622 12.1406 8.25334" stroke="#0058FF" stroke-width="1.51724" stroke-linecap="round" stroke-linejoin="round"/>
</g>
<defs>
<clipPath id="clip0_671_9285">
<rect width="18.2069" height="18.2069" fill="white"/>
</clipPath>
</defs>
</svg>
