<svg width="20" height="20" viewBox="0 0 20 20" fill="none" xmlns="http://www.w3.org/2000/svg">
<g clip-path="url(#clip0_590_2901)">
<path d="M17.3239 8.22727C17.3239 13.9882 9.91697 18.9262 9.91697 18.9262C9.91697 18.9262 2.51001 13.9882 2.51001 8.22727C2.51001 6.26283 3.29038 4.37884 4.67946 2.98976C6.06853 1.60069 7.95252 0.820312 9.91697 0.820312C11.8814 0.820313 13.7654 1.60069 15.1545 2.98976C16.5436 4.37884 17.3239 6.26283 17.3239 8.22727Z" stroke="black" stroke-width="1.41085" stroke-linecap="round" stroke-linejoin="round"/>
<path d="M9.91699 10.6958C11.2806 10.6958 12.386 9.59038 12.386 8.2268C12.386 6.86322 11.2806 5.75781 9.91699 5.75781C8.5534 5.75781 7.448 6.86322 7.448 8.2268C7.448 9.59038 8.5534 10.6958 9.91699 10.6958Z" stroke="black" stroke-width="1.41085" stroke-linecap="round" stroke-linejoin="round"/>
</g>
<defs>
<clipPath id="clip0_590_2901">
<rect width="19.7519" height="19.7519" fill="white" transform="translate(0.0410156 -0.00292969)"/>
</clipPath>
</defs>
</svg>
