<svg width="24" height="24" viewBox="0 0 24 24" fill="none" xmlns="http://www.w3.org/2000/svg">
<path d="M8.89621 6.35671C8.89621 5.46724 9.24956 4.61419 9.87852 3.98523C10.5075 3.35627 11.3605 3.00293 12.25 3.00293C13.1395 3.00293 13.9925 3.35627 14.6215 3.98523C15.2504 4.61419 15.6038 5.46724 15.6038 6.35671C15.6038 7.24619 15.2504 8.09924 14.6215 8.7282C13.9925 9.35716 13.1395 9.7105 12.25 9.7105C11.3605 9.7105 10.5075 9.35716 9.87852 8.7282C9.24956 8.09924 8.89621 7.24619 8.89621 6.35671ZM12.25 4.6815C12.03 4.6815 11.8122 4.72483 11.6089 4.80902C11.4057 4.89321 11.221 5.0166 11.0654 5.17216C10.9099 5.32772 10.7865 5.51239 10.7023 5.71564C10.6181 5.91888 10.5748 6.13672 10.5748 6.35671C10.5748 6.57671 10.6181 6.79455 10.7023 6.99779C10.7865 7.20104 10.9099 7.38571 11.0654 7.54127C11.221 7.69683 11.4057 7.82022 11.6089 7.90441C11.8122 7.9886 12.03 8.03193 12.25 8.03193C12.6943 8.03193 13.1204 7.85543 13.4346 7.54127C13.7487 7.22711 13.9252 6.80101 13.9252 6.35671C13.9252 5.91242 13.7487 5.48632 13.4346 5.17216C13.1204 4.858 12.6943 4.6815 12.25 4.6815ZM17.2857 7.196C17.2857 6.86535 17.3508 6.53794 17.4774 6.23246C17.6039 5.92698 17.7894 5.64941 18.0232 5.41561C18.257 5.1818 18.5345 4.99634 18.84 4.8698C19.1455 4.74327 19.4729 4.67814 19.8036 4.67814C20.1342 4.67814 20.4616 4.74327 20.7671 4.8698C21.0726 4.99634 21.3502 5.1818 21.584 5.41561C21.8178 5.64941 22.0032 5.92698 22.1298 6.23246C22.2563 6.53794 22.3214 6.86535 22.3214 7.196C22.3214 7.86378 22.0562 8.50421 21.584 8.97639C21.1118 9.44858 20.4713 9.71386 19.8036 9.71386C19.1358 9.71386 18.4954 9.44858 18.0232 8.97639C17.551 8.50421 17.2857 7.86378 17.2857 7.196ZM19.8036 6.35671C19.581 6.35671 19.3675 6.44514 19.2101 6.60254C19.0527 6.75993 18.9643 6.97341 18.9643 7.196C18.9643 7.41859 19.0527 7.63207 19.2101 7.78946C19.3675 7.94686 19.581 8.03529 19.8036 8.03529C20.0262 8.03529 20.2396 7.94686 20.397 7.78946C20.5544 7.63207 20.6429 7.41859 20.6429 7.196C20.6429 6.97341 20.5544 6.75993 20.397 6.60254C20.2396 6.44514 20.0262 6.35671 19.8036 6.35671ZM4.69643 4.67814C4.02865 4.67814 3.38822 4.94342 2.91603 5.41561C2.44385 5.8878 2.17857 6.52822 2.17857 7.196C2.17857 7.86378 2.44385 8.50421 2.91603 8.97639C3.38822 9.44858 4.02865 9.71386 4.69643 9.71386C5.36421 9.71386 6.00463 9.44858 6.47682 8.97639C6.94901 8.50421 7.21429 7.86378 7.21429 7.196C7.21429 6.52822 6.94901 5.8878 6.47682 5.41561C6.00463 4.94342 5.36421 4.67814 4.69643 4.67814ZM3.85714 7.196C3.85714 6.97341 3.94557 6.75993 4.10296 6.60254C4.26036 6.44514 4.47384 6.35671 4.69643 6.35671C4.91902 6.35671 5.1325 6.44514 5.28989 6.60254C5.44729 6.75993 5.53571 6.97341 5.53571 7.196C5.53571 7.41859 5.44729 7.63207 5.28989 7.78946C5.1325 7.94686 4.91902 8.03529 4.69643 8.03529C4.47384 8.03529 4.26036 7.94686 4.10296 7.78946C3.94557 7.63207 3.85714 7.41859 3.85714 7.196ZM5.98557 11.3924C5.69089 11.9028 5.53574 12.4817 5.53571 13.071H2.17857V17.2674C2.17844 17.685 2.28213 18.096 2.48032 18.4634C2.67852 18.8309 2.96498 19.1434 3.31394 19.3726C3.66289 19.6019 4.06338 19.7407 4.47935 19.7767C4.89532 19.8127 5.31371 19.7447 5.69686 19.5788C5.82107 20.1344 6.01579 20.6649 6.26757 21.16C5.63049 21.4173 4.94 21.5141 4.25674 21.4422C3.57347 21.3702 2.91833 21.1315 2.34885 20.7472C1.77937 20.3628 1.31297 19.8445 0.990601 19.2378C0.668237 18.6311 0.499772 17.9545 0.5 17.2674V13.071C0.5 12.6258 0.676849 12.1989 0.991642 11.8841C1.30644 11.5693 1.73339 11.3924 2.17857 11.3924H5.98557ZM18.2324 21.16C18.8695 21.4173 19.56 21.5141 20.2433 21.4422C20.9265 21.3702 21.5817 21.1315 22.1512 20.7472C22.7206 20.3628 23.187 19.8445 23.5094 19.2378C23.8318 18.6311 24.0002 17.9545 24 17.2674V13.071C24 12.6258 23.8232 12.1989 23.5084 11.8841C23.1936 11.5693 22.7666 11.3924 22.3214 11.3924H18.5144C18.7998 11.8859 18.9643 12.4583 18.9643 13.071H22.3214V17.2674C22.3216 17.685 22.2179 18.096 22.0197 18.4634C21.8215 18.8309 21.535 19.1434 21.1861 19.3726C20.8371 19.6019 20.4366 19.7407 20.0207 19.7767C19.6047 19.8127 19.1863 19.7447 18.8031 19.5788C18.6756 20.1361 18.4853 20.6632 18.2324 21.16ZM8.89286 11.3907C8.44767 11.3907 8.02072 11.5676 7.70593 11.8824C7.39114 12.1972 7.21429 12.6241 7.21429 13.0693V18.1067C7.21429 19.4423 7.74483 20.7231 8.68921 21.6675C9.63359 22.6119 10.9144 23.1424 12.25 23.1424C13.5856 23.1424 14.8664 22.6119 15.8108 21.6675C16.7552 20.7231 17.2857 19.4423 17.2857 18.1067V13.071C17.2857 12.6258 17.1089 12.1989 16.7941 11.8841C16.4793 11.5693 16.0523 11.3924 15.6071 11.3924L8.89286 11.3907ZM8.89286 13.0693H15.6071V18.1067C15.6071 18.9971 15.2534 19.851 14.6239 20.4806C13.9943 21.1102 13.1404 21.4639 12.25 21.4639C11.3596 21.4639 10.5057 21.1102 9.87614 20.4806C9.24656 19.851 8.89286 18.9971 8.89286 18.1067V13.0693Z" fill="black"/>
</svg>
