<svg width="32" height="31" viewBox="0 0 32 31" fill="none" xmlns="http://www.w3.org/2000/svg">
<path d="M16.0228 21.2445C18.6201 21.2445 20.7256 19.139 20.7256 16.5417C20.7256 13.9444 18.6201 11.8389 16.0228 11.8389C13.4255 11.8389 11.3199 13.9444 11.3199 16.5417C11.3199 19.139 13.4255 21.2445 16.0228 21.2445Z" stroke="#0058FF" stroke-width="1.88113" stroke-linecap="round" stroke-linejoin="round"/>
<path d="M24.0176 13.7207C25.113 13.7189 26.1938 13.9731 27.1736 14.463C28.1534 14.9529 29.0052 15.6649 29.661 16.5424" stroke="#0058FF" stroke-width="1.88113" stroke-linecap="round" stroke-linejoin="round"/>
<path d="M2.38464 16.5424C3.04045 15.6649 3.89223 14.9529 4.87204 14.463C5.85185 13.9731 6.93258 13.7189 8.02804 13.7207" stroke="#0058FF" stroke-width="1.88113" stroke-linecap="round" stroke-linejoin="round"/>
<path d="M9.25073 25.4766C9.87012 24.2081 10.8333 23.1391 12.0306 22.3913C13.2279 21.6435 14.6112 21.2471 16.0228 21.2471C17.4344 21.2471 18.8177 21.6435 20.015 22.3913C21.2123 23.1391 22.1755 24.2081 22.7949 25.4766" stroke="#0058FF" stroke-width="1.88113" stroke-linecap="round" stroke-linejoin="round"/>
<path d="M8.02805 13.7198C7.31397 13.7206 6.61444 13.5181 6.01118 13.136C5.40792 12.7539 4.92585 12.208 4.6213 11.5622C4.31675 10.9163 4.2023 10.1971 4.29131 9.48858C4.38033 8.78007 4.66914 8.11153 5.12399 7.56107C5.57885 7.0106 6.18097 6.60095 6.85999 6.37998C7.53902 6.15901 8.26691 6.13584 8.95861 6.31319C9.65032 6.49053 10.2773 6.86107 10.7662 7.38149C11.2551 7.90192 11.5859 8.55074 11.7198 9.25215" stroke="#0058FF" stroke-width="1.88113" stroke-linecap="round" stroke-linejoin="round"/>
<path d="M20.3259 9.25215C20.4598 8.55074 20.7906 7.90192 21.2795 7.38149C21.7684 6.86107 22.3954 6.49053 23.0871 6.31319C23.7788 6.13584 24.5067 6.15901 25.1857 6.37998C25.8647 6.60095 26.4668 7.0106 26.9217 7.56107C27.3766 8.11153 27.6654 8.78007 27.7544 9.48858C27.8434 10.1971 27.7289 10.9163 27.4244 11.5622C27.1198 12.208 26.6378 12.7539 26.0345 13.136C25.4313 13.5181 24.7317 13.7206 24.0177 13.7198" stroke="#0058FF" stroke-width="1.88113" stroke-linecap="round" stroke-linejoin="round"/>
</svg>
