<svg width="32" height="31" viewBox="0 0 32 31" fill="none" xmlns="http://www.w3.org/2000/svg">
<path d="M16.023 21.2445C18.6203 21.2445 20.7258 19.139 20.7258 16.5417C20.7258 13.9444 18.6203 11.8389 16.023 11.8389C13.4257 11.8389 11.3201 13.9444 11.3201 16.5417C11.3201 19.139 13.4257 21.2445 16.023 21.2445Z" stroke="#0058FF" stroke-width="1.88113" stroke-linecap="round" stroke-linejoin="round"/>
<path d="M24.0178 13.7207C25.1132 13.7189 26.194 13.9731 27.1738 14.463C28.1536 14.9529 29.0054 15.6649 29.6612 16.5424" stroke="#0058FF" stroke-width="1.88113" stroke-linecap="round" stroke-linejoin="round"/>
<path d="M2.3847 16.5424C3.04051 15.6649 3.89229 14.9529 4.8721 14.463C5.85191 13.9731 6.93265 13.7189 8.0281 13.7207" stroke="#0058FF" stroke-width="1.88113" stroke-linecap="round" stroke-linejoin="round"/>
<path d="M9.25085 25.4766C9.87025 24.2081 10.8335 23.1391 12.0308 22.3913C13.2281 21.6435 14.6113 21.2471 16.0229 21.2471C17.4346 21.2471 18.8178 21.6435 20.0151 22.3913C21.2124 23.1391 22.1756 24.2081 22.795 25.4766" stroke="#0058FF" stroke-width="1.88113" stroke-linecap="round" stroke-linejoin="round"/>
<path d="M8.02811 13.7198C7.31403 13.7206 6.6145 13.5181 6.01124 13.136C5.40798 12.7539 4.92591 12.208 4.62136 11.5622C4.31681 10.9163 4.20236 10.1971 4.29137 9.48858C4.38039 8.78007 4.6692 8.11153 5.12405 7.56107C5.57891 7.0106 6.18103 6.60095 6.86006 6.37998C7.53908 6.15901 8.26697 6.13584 8.95867 6.31319C9.65038 6.49053 10.2773 6.86107 10.7663 7.38149C11.2552 7.90192 11.5859 8.55074 11.7198 9.25215" stroke="#0058FF" stroke-width="1.88113" stroke-linecap="round" stroke-linejoin="round"/>
<path d="M20.326 9.25215C20.4599 8.55074 20.7907 7.90192 21.2796 7.38149C21.7686 6.86107 22.3955 6.49053 23.0872 6.31319C23.7789 6.13584 24.5068 6.15901 25.1858 6.37998C25.8649 6.60095 26.467 7.0106 26.9218 7.56107C27.3767 8.11153 27.6655 8.78007 27.7545 9.48858C27.8435 10.1971 27.7291 10.9163 27.4245 11.5622C27.12 12.208 26.6379 12.7539 26.0346 13.136C25.4314 13.5181 24.7318 13.7206 24.0178 13.7198" stroke="#0058FF" stroke-width="1.88113" stroke-linecap="round" stroke-linejoin="round"/>
</svg>
